<svg width="882" height="374" viewBox="0 0 882 374" fill="none" xmlns="http://www.w3.org/2000/svg">
<path d="M542 251C542 248.239 539.761 246 537 246C534.239 246 532 248.239 532 251H542ZM303.464 333.464C301.512 335.417 301.512 338.583 303.464 340.536L335.284 372.355C337.237 374.308 340.403 374.308 342.355 372.355C344.308 370.403 344.308 367.237 342.355 365.284L314.071 337L342.355 308.716C344.308 306.763 344.308 303.597 342.355 301.645C340.403 299.692 337.237 299.692 335.284 301.645L303.464 333.464ZM532 251V332H542V251H532ZM532 332H307V342H532V332ZM532 332L532 332V342C537.523 342 542 337.523 542 332H532Z" fill="#00D1FF"/>
<path d="M308 251C308 253.761 310.239 256 313 256C315.761 256 318 253.761 318 251H308ZM123.464 186.464C121.512 188.417 121.512 191.583 123.464 193.536L155.284 225.355C157.237 227.308 160.403 227.308 162.355 225.355C164.308 223.403 164.308 220.237 162.355 218.284L134.071 190L162.355 161.716C164.308 159.763 164.308 156.597 162.355 154.645C160.403 152.692 157.237 152.692 155.284 154.645L123.464 186.464ZM318 251C318 250.986 318 250.972 318 250.958C318 250.943 318 250.929 318 250.915C318 250.9 318 250.886 318 250.871C318 250.857 318 250.842 318 250.827C318 250.812 318 250.798 318 250.783C318 250.768 318 250.753 318 250.738C318 250.722 318 250.707 318 250.692C318 250.677 318 250.661 318 250.646C318 250.63 318 250.615 318 250.599C318 250.584 318 250.568 318 250.552C318 250.536 318 250.52 318 250.504C318 250.489 318 250.472 318 250.456C318 250.44 318 250.424 318 250.408C318 250.391 318 250.375 318 250.358C318 250.342 318 250.325 318 250.309C318 250.292 318 250.275 318 250.258C318 250.242 318 250.225 318 250.208C318 250.191 318 250.174 318 250.156C318 250.139 318 250.122 318 250.105C318 250.087 318 250.07 318 250.052C318 250.035 318 250.017 318 250C318 249.982 318 249.964 318 249.946C318 249.929 318 249.911 318 249.893C318 249.875 318 249.857 318 249.838C318 249.82 318 249.802 318 249.784C318 249.765 318 249.747 318 249.728C318 249.71 318 249.691 318 249.673C318 249.654 318 249.635 318 249.616C318 249.598 318 249.579 318 249.56C318 249.541 318 249.522 318 249.502C318 249.483 318 249.464 318 249.445C318 249.425 318 249.406 318 249.387C318 249.367 318 249.348 318 249.328C318 249.308 318 249.289 318 249.269C318 249.249 318 249.229 318 249.209C318 249.189 318 249.169 318 249.149C318 249.129 318 249.109 318 249.088C318 249.068 318 249.048 318 249.027C318 249.007 318 248.986 318 248.966C318 248.945 318 248.925 318 248.904C318 248.883 318 248.862 318 248.841C318 248.82 318 248.799 318 248.778C318 248.757 318 248.736 318 248.715C318 248.694 318 248.672 318 248.651C318 248.63 318 248.608 318 248.587C318 248.565 318 248.544 318 248.522C318 248.5 318 248.479 318 248.457C318 248.435 318 248.413 318 248.391C318 248.369 318 248.347 318 248.325C318 248.303 318 248.28 318 248.258C318 248.236 318 248.213 318 248.191C318 248.169 318 248.146 318 248.123C318 248.101 318 248.078 318 248.055C318 248.033 318 248.01 318 247.987C318 247.964 318 247.941 318 247.918C318 247.895 318 247.872 318 247.849C318 247.826 318 247.802 318 247.779C318 247.756 318 247.732 318 247.709C318 247.685 318 247.662 318 247.638C318 247.614 318 247.591 318 247.567C318 247.543 318 247.519 318 247.495C318 247.471 318 247.447 318 247.423C318 247.399 318 247.375 318 247.351C318 247.327 318 247.302 318 247.278C318 247.254 318 247.229 318 247.205C318 247.18 318 247.156 318 247.131C318 247.106 318 247.082 318 247.057C318 247.032 318 247.007 318 246.982C318 246.957 318 246.932 318 246.907C318 246.882 318 246.857 318 246.832C318 246.807 318 246.781 318 246.756C318 246.731 318 246.705 318 246.68C318 246.654 318 246.629 318 246.603C318 246.577 318 246.552 318 246.526C318 246.5 318 246.474 318 246.448C318 246.422 318 246.396 318 246.37C318 246.344 318 246.318 318 246.292C318 246.266 318 246.24 318 246.213C318 246.187 318 246.161 318 246.134C318 246.108 318 246.081 318 246.054C318 246.028 318 246.001 318 245.974C318 245.948 318 245.921 318 245.894C318 245.867 318 245.84 318 245.813C318 245.786 318 245.759 318 245.732C318 245.705 318 245.678 318 245.65C318 245.623 318 245.596 318 245.568C318 245.541 318 245.514 318 245.486C318 245.458 318 245.431 318 245.403C318 245.376 318 245.348 318 245.32C318 245.292 318 245.264 318 245.236C318 245.208 318 245.18 318 245.152C318 245.124 318 245.096 318 245.068C318 245.04 318 245.012 318 244.983C318 244.955 318 244.927 318 244.898C318 244.87 318 244.841 318 244.813C318 244.784 318 244.755 318 244.727C318 244.698 318 244.669 318 244.64C318 244.612 318 244.583 318 244.554C318 244.525 318 244.496 318 244.467C318 244.438 318 244.408 318 244.379C318 244.35 318 244.321 318 244.291C318 244.262 318 244.233 318 244.203C318 244.174 318 244.144 318 244.115C318 244.085 318 244.055 318 244.026C318 243.996 318 243.966 318 243.936C318 243.907 318 243.877 318 243.847C318 243.817 318 243.787 318 243.757C318 243.727 318 243.697 318 243.666C318 243.636 318 243.606 318 243.576C318 243.545 318 243.515 318 243.485C318 243.454 318 243.424 318 243.393C318 243.362 318 243.332 318 243.301C318 243.271 318 243.24 318 243.209C318 243.178 318 243.147 318 243.116C318 243.086 318 243.055 318 243.024C318 242.993 318 242.961 318 242.93C318 242.899 318 242.868 318 242.837C318 242.805 318 242.774 318 242.743C318 242.711 318 242.68 318 242.649C318 242.617 318 242.585 318 242.554C318 242.522 318 242.491 318 242.459C318 242.427 318 242.395 318 242.364C318 242.332 318 242.3 318 242.268C318 242.236 318 242.204 318 242.172C318 242.14 318 242.108 318 242.076C318 242.043 318 242.011 318 241.979C318 241.947 318 241.914 318 241.882C318 241.85 318 241.817 318 241.785C318 241.752 318 241.72 318 241.687C318 241.654 318 241.622 318 241.589C318 241.556 318 241.523 318 241.491C318 241.458 318 241.425 318 241.392C318 241.359 318 241.326 318 241.293C318 241.26 318 241.227 318 241.194C318 241.16 318 241.127 318 241.094C318 241.061 318 241.027 318 240.994C318 240.961 318 240.927 318 240.894C318 240.86 318 240.827 318 240.793C318 240.76 318 240.726 318 240.692C318 240.659 318 240.625 318 240.591C318 240.557 318 240.524 318 240.49C318 240.456 318 240.422 318 240.388C318 240.354 318 240.32 318 240.286C318 240.252 318 240.217 318 240.183C318 240.149 318 240.115 318 240.081C318 240.046 318 240.012 318 239.977C318 239.943 318 239.909 318 239.874C318 239.84 318 239.805 318 239.771C318 239.736 318 239.701 318 239.667C318 239.632 318 239.597 318 239.562C318 239.528 318 239.493 318 239.458C318 239.423 318 239.388 318 239.353C318 239.318 318 239.283 318 239.248C318 239.213 318 239.178 318 239.142C318 239.107 318 239.072 318 239.037C318 239.001 318 238.966 318 238.931C318 238.895 318 238.86 318 238.824C318 238.789 318 238.753 318 238.718C318 238.682 318 238.647 318 238.611C318 238.575 318 238.54 318 238.504C318 238.468 318 238.432 318 238.396C318 238.361 318 238.325 318 238.289C318 238.253 318 238.217 318 238.181C318 238.145 318 238.109 318 238.073C318 238.036 318 238 318 237.964C318 237.928 318 237.892 318 237.855C318 237.819 318 237.783 318 237.746C318 237.71 318 237.673 318 237.637C318 237.6 318 237.564 318 237.527C318 237.491 318 237.454 318 237.417C318 237.381 318 237.344 318 237.307C318 237.271 318 237.234 318 237.197C318 237.16 318 237.123 318 237.086C318 237.049 318 237.012 318 236.975C318 236.938 318 236.901 318 236.864C318 236.827 318 236.79 318 236.753C318 236.716 318 236.678 318 236.641C318 236.604 318 236.567 318 236.529C318 236.492 318 236.455 318 236.417C318 236.38 318 236.342 318 236.305C318 236.267 318 236.23 318 236.192C318 236.154 318 236.117 318 236.079C318 236.041 318 236.004 318 235.966C318 235.928 318 235.89 318 235.853C318 235.815 318 235.777 318 235.739C318 235.701 318 235.663 318 235.625C318 235.587 318 235.549 318 235.511C318 235.473 318 235.435 318 235.397C318 235.358 318 235.32 318 235.282C318 235.244 318 235.205 318 235.167C318 235.129 318 235.091 318 235.052C318 235.014 318 234.975 318 234.937C318 234.898 318 234.86 318 234.821C318 234.783 318 234.744 318 234.706C318 234.667 318 234.628 318 234.59C318 234.551 318 234.512 318 234.473C318 234.435 318 234.396 318 234.357C318 234.318 318 234.279 318 234.24C318 234.201 318 234.163 318 234.124C318 234.085 318 234.046 318 234.006C318 233.967 318 233.928 318 233.889C318 233.85 318 233.811 318 233.772C318 233.732 318 233.693 318 233.654C318 233.615 318 233.575 318 233.536C318 233.497 318 233.457 318 233.418C318 233.378 318 233.339 318 233.3C318 233.26 318 233.221 318 233.181C318 233.141 318 233.102 318 233.062C318 233.023 318 232.983 318 232.943C318 232.904 318 232.864 318 232.824C318 232.784 318 232.745 318 232.705C318 232.665 318 232.625 318 232.585C318 232.545 318 232.505 318 232.465C318 232.425 318 232.386 318 232.345C318 232.305 318 232.265 318 232.225C318 232.185 318 232.145 318 232.105C318 232.065 318 232.025 318 231.984C318 231.944 318 231.904 318 231.864C318 231.823 318 231.783 318 231.743C318 231.703 318 231.662 318 231.622C318 231.581 318 231.541 318 231.501C318 231.46 318 231.42 318 231.379C318 231.339 318 231.298 318 231.257C318 231.217 318 231.176 318 231.136C318 231.095 318 231.054 318 231.014C318 230.973 318 230.932 318 230.891C318 230.851 318 230.81 318 230.769C318 230.728 318 230.687 318 230.647C318 230.606 318 230.565 318 230.524C318 230.483 318 230.442 318 230.401C318 230.36 318 230.319 318 230.278C318 230.237 318 230.196 318 230.155C318 230.114 318 230.073 318 230.031C318 229.99 318 229.949 318 229.908C318 229.867 318 229.826 318 229.784C318 229.743 318 229.702 318 229.66C318 229.619 318 229.578 318 229.536C318 229.495 318 229.454 318 229.412C318 229.371 318 229.329 318 229.288C318 229.246 318 229.205 318 229.163C318 229.122 318 229.08 318 229.039C318 228.997 318 228.956 318 228.914C318 228.872 318 228.831 318 228.789C318 228.747 318 228.706 318 228.664C318 228.622 318 228.581 318 228.539C318 228.497 318 228.455 318 228.414C318 228.372 318 228.33 318 228.288C318 228.246 318 228.204 318 228.162C318 228.12 318 228.079 318 228.037C318 227.995 318 227.953 318 227.911C318 227.869 318 227.827 318 227.785C318 227.743 318 227.701 318 227.658C318 227.616 318 227.574 318 227.532C318 227.49 318 227.448 318 227.406C318 227.363 318 227.321 318 227.279C318 227.237 318 227.195 318 227.152C318 227.11 318 227.068 318 227.025C318 226.983 318 226.941 318 226.899C318 226.856 318 226.814 318 226.771C318 226.729 318 226.687 318 226.644C318 226.602 318 226.559 318 226.517C318 226.474 318 226.432 318 226.389C318 226.347 318 226.304 318 226.262C318 226.219 318 226.177 318 226.134C318 226.092 318 226.049 318 226.006C318 225.964 318 225.921 318 225.878C318 225.836 318 225.793 318 225.75C318 225.708 318 225.665 318 225.622C318 225.58 318 225.537 318 225.494C318 225.451 318 225.409 318 225.366C318 225.323 318 225.28 318 225.237C318 225.194 318 225.152 318 225.109C318 225.066 318 225.023 318 224.98C318 224.937 318 224.894 318 224.851C318 224.808 318 224.765 318 224.722C318 224.68 318 224.637 318 224.594C318 224.551 318 224.508 318 224.465C318 224.421 318 224.378 318 224.335C318 224.292 318 224.249 318 224.206C318 224.163 318 224.12 318 224.077C318 224.034 318 223.991 318 223.947C318 223.904 318 223.861 318 223.818C318 223.775 318 223.732 318 223.688C318 223.645 318 223.602 318 223.559C318 223.515 318 223.472 318 223.429C318 223.386 318 223.342 318 223.299C318 223.256 318 223.213 318 223.169C318 223.126 318 223.083 318 223.039C318 222.996 318 222.953 318 222.909C318 222.866 318 222.822 318 222.779C318 222.736 318 222.692 318 222.649C318 222.605 318 222.562 318 222.519C318 222.475 318 222.432 318 222.388C318 222.345 318 222.301 318 222.258C318 222.214 318 222.171 318 222.127C318 222.084 318 222.04 318 221.997C318 221.953 318 221.91 318 221.866C318 221.823 318 221.779 318 221.736C318 221.692 318 221.648 318 221.605C318 221.561 318 221.518 318 221.474C318 221.43 318 221.387 318 221.343C318 221.3 318 221.256 318 221.212C318 221.169 318 221.125 318 221.081C318 221.038 318 220.994 318 220.95C318 220.907 318 220.863 318 220.819C318 220.776 318 220.732 318 220.688C318 220.644 318 220.601 318 220.557C318 220.513 318 220.47 318 220.426C318 220.382 318 220.338 318 220.295C318 220.251 318 220.207 318 220.163C318 220.119 318 220.076 318 220.032C318 219.988 318 219.944 318 219.901C318 219.857 318 219.813 318 219.769C318 219.725 318 219.682 318 219.638C318 219.594 318 219.55 318 219.506C318 219.462 318 219.419 318 219.375C318 219.331 318 219.287 318 219.243C318 219.199 318 219.156 318 219.112C318 219.068 318 219.024 318 218.98C318 218.936 318 218.892 318 218.848C318 218.805 318 218.761 318 218.717C318 218.673 318 218.629 318 218.585C318 218.541 318 218.497 318 218.453C318 218.41 318 218.366 318 218.322C318 218.278 318 218.234 318 218.19C318 218.146 318 218.102 318 218.058C318 218.014 318 217.97 318 217.927C318 217.883 318 217.839 318 217.795C318 217.751 318 217.707 318 217.663C318 217.619 318 217.575 318 217.531C318 217.487 318 217.443 318 217.399C318 217.355 318 217.311 318 217.268C318 217.224 318 217.18 318 217.136C318 217.092 318 217.048 318 217.004C318 216.96 318 216.916 318 216.872C318 216.828 318 216.784 318 216.74C318 216.696 318 216.652 318 216.608C318 216.564 318 216.521 318 216.477C318 216.433 318 216.389 318 216.345C318 216.301 318 216.257 318 216.213C318 216.169 318 216.125 318 216.081C318 216.037 318 215.993 318 215.949C318 215.905 318 215.862 318 215.818C318 215.774 318 215.73 318 215.686C318 215.642 318 215.598 318 215.554C318 215.51 318 215.466 318 215.422C318 215.378 318 215.334 318 215.291C318 215.247 318 215.203 318 215.159C318 215.115 318 215.071 318 215.027C318 214.983 318 214.939 318 214.895C318 214.852 318 214.808 318 214.764C318 214.72 318 214.676 318 214.632C318 214.588 318 214.544 318 214.501C318 214.457 318 214.413 318 214.369C318 214.325 318 214.281 318 214.237C318 214.194 318 214.15 318 214.106C318 214.062 318 214.018 318 213.974C318 213.931 318 213.887 318 213.843C318 213.799 318 213.755 318 213.712C318 213.668 318 213.624 318 213.58C318 213.536 318 213.493 318 213.449C318 213.405 318 213.361 318 213.318C318 213.274 318 213.23 318 213.186C318 213.143 318 213.099 318 213.055C318 213.011 318 212.968 318 212.924C318 212.88 318 212.837 318 212.793C318 212.749 318 212.706 318 212.662C318 212.618 318 212.574 318 212.531C318 212.487 318 212.443 318 212.4C318 212.356 318 212.313 318 212.269C318 212.225 318 212.182 318 212.138C318 212.094 318 212.051 318 212.007C318 211.964 318 211.92 318 211.877C318 211.833 318 211.789 318 211.746C318 211.702 318 211.659 318 211.615C318 211.572 318 211.528 318 211.485C318 211.441 318 211.398 318 211.354C318 211.311 318 211.267 318 211.224C318 211.18 318 211.137 318 211.093C318 211.05 318 211.006 318 210.963C318 210.92 318 210.876 318 210.833C318 210.789 318 210.746 318 210.703C318 210.659 318 210.616 318 210.573C318 210.529 318 210.486 318 210.443C318 210.399 318 210.356 318 210.313C318 210.269 318 210.226 318 210.183C318 210.14 318 210.096 318 210.053C318 210.01 318 209.967 318 209.923C318 209.88 318 209.837 318 209.794C318 209.751 318 209.707 318 209.664C318 209.621 318 209.578 318 209.535C318 209.492 318 209.449 318 209.406C318 209.362 318 209.319 318 209.276C318 209.233 318 209.19 318 209.147C318 209.104 318 209.061 318 209.018C318 208.975 318 208.932 318 208.889C318 208.846 318 208.803 318 208.76C318 208.717 318 208.674 318 208.631C318 208.588 318 208.546 318 208.503C318 208.46 318 208.417 318 208.374C318 208.331 318 208.288 318 208.246C318 208.203 318 208.16 318 208.117C318 208.075 318 208.032 318 207.989C318 207.946 318 207.904 318 207.861C318 207.818 318 207.775 318 207.733C318 207.69 318 207.648 318 207.605C318 207.562 318 207.52 318 207.477C318 207.434 318 207.392 318 207.349C318 207.307 318 207.264 318 207.222C318 207.179 318 207.137 318 207.094C318 207.052 318 207.009 318 206.967C318 206.924 318 206.882 318 206.84C318 206.797 318 206.755 318 206.713C318 206.67 318 206.628 318 206.586C318 206.543 318 206.501 318 206.459C318 206.416 318 206.374 318 206.332C318 206.29 318 206.247 318 206.205C318 206.163 318 206.121 318 206.079C318 206.037 318 205.995 318 205.952C318 205.91 318 205.868 318 205.826C318 205.784 318 205.742 318 205.7C318 205.658 318 205.616 318 205.574C318 205.532 318 205.49 318 205.448C318 205.406 318 205.365 318 205.323C318 205.281 318 205.239 318 205.197C318 205.155 318 205.114 318 205.072C318 205.03 318 204.988 318 204.946C318 204.905 318 204.863 318 204.821C318 204.78 318 204.738 318 204.696C318 204.655 318 204.613 318 204.572C318 204.53 318 204.488 318 204.447C318 204.405 318 204.364 318 204.322C318 204.281 318 204.24 318 204.198C318 204.157 318 204.115 318 204.074C318 204.033 318 203.991 318 203.95C318 203.909 318 203.867 318 203.826C318 203.785 318 203.743 318 203.702C318 203.661 318 203.62 318 203.579C318 203.537 318 203.496 318 203.455C318 203.414 318 203.373 318 203.332C318 203.291 318 203.25 318 203.209C318 203.168 318 203.127 318 203.086C318 203.045 318 203.004 318 202.963C318 202.922 318 202.882 318 202.841C318 202.8 318 202.759 318 202.718C318 202.678 318 202.637 318 202.596C318 202.555 318 202.515 318 202.474C318 202.433 318 202.393 318 202.352C318 202.312 318 202.271 318 202.231C318 202.19 318 202.15 318 202.109C318 202.069 318 202.028 318 201.988C318 201.947 318 201.907 318 201.867C318 201.826 318 201.786 318 201.746C318 201.705 318 201.665 318 201.625C318 201.585 318 201.544 318 201.504C318 201.464 318 201.424 318 201.384C318 201.344 318 201.304 318 201.264C318 201.224 318 201.184 318 201.144C318 201.104 318 201.064 318 201.024C318 200.984 318 200.944 318 200.904C318 200.864 318 200.825 318 200.785C318 200.745 318 200.705 318 200.666C318 200.626 318 200.586 318 200.547C318 200.507 318 200.467 318 200.428C318 200.388 318 200.349 318 200.309C318 200.27 318 200.23 318 200.191C318 200.151 318 200.112 318 200.073C318 200.033 318 199.994 318 199.955C318 199.915 318 199.876 318 199.837C318 199.798 318 199.758 318 199.719C318 199.68 318 199.641 318 199.602C318 199.563 318 199.524 318 199.485C318 199.446 318 199.407 318 199.368C318 199.329 318 199.29 318 199.251C318 199.212 318 199.174 318 199.135C318 199.096 318 199.057 318 199.019C318 198.98 318 198.941 318 198.903C318 198.864 318 198.825 318 198.787C318 198.748 318 198.71 318 198.671C318 198.633 318 198.594 318 198.556C318 198.517 318 198.479 318 198.441C318 198.402 318 198.364 318 198.326C318 198.288 318 198.249 318 198.211C318 198.173 318 198.135 318 198.097C318 198.059 318 198.021 318 197.983C318 197.944 318 197.907 318 197.869C318 197.831 318 197.793 318 197.755C318 197.717 318 197.679 318 197.641C318 197.604 318 197.566 318 197.528C318 197.49 318 197.453 318 197.415C318 197.378 318 197.34 318 197.302C318 197.265 318 197.227 318 197.19C318 197.153 318 197.115 318 197.078C318 197.04 318 197.003 318 196.966C318 196.928 318 196.891 318 196.854C318 196.817 318 196.78 318 196.743C318 196.705 318 196.668 318 196.631C318 196.594 318 196.557 318 196.52C318 196.483 318 196.447 318 196.41C318 196.373 318 196.336 318 196.299C318 196.262 318 196.226 318 196.189C318 196.152 318 196.116 318 196.079C318 196.043 318 196.006 318 195.969C318 195.933 318 195.896 318 195.86C318 195.824 318 195.787 318 195.751C318 195.715 318 195.678 318 195.642C318 195.606 318 195.57 318 195.533C318 195.497 318 195.461 318 195.425C318 195.389 318 195.353 318 195.317C318 195.281 318 195.245 318 195.209C318 195.174 318 195.138 318 195.102C318 195.066 318 195.03 318 194.995H308C308 195.03 308 195.066 308 195.102C308 195.138 308 195.174 308 195.209C308 195.245 308 195.281 308 195.317C308 195.353 308 195.389 308 195.425C308 195.461 308 195.497 308 195.533C308 195.57 308 195.606 308 195.642C308 195.678 308 195.715 308 195.751C308 195.787 308 195.824 308 195.86C308 195.896 308 195.933 308 195.969C308 196.006 308 196.043 308 196.079C308 196.116 308 196.152 308 196.189C308 196.226 308 196.262 308 196.299C308 196.336 308 196.373 308 196.41C308 196.447 308 196.483 308 196.52C308 196.557 308 196.594 308 196.631C308 196.668 308 196.705 308 196.743C308 196.78 308 196.817 308 196.854C308 196.891 308 196.928 308 196.966C308 197.003 308 197.04 308 197.078C308 197.115 308 197.153 308 197.19C308 197.227 308 197.265 308 197.302C308 197.34 308 197.378 308 197.415C308 197.453 308 197.49 308 197.528C308 197.566 308 197.604 308 197.641C308 197.679 308 197.717 308 197.755C308 197.793 308 197.831 308 197.869C308 197.907 308 197.944 308 197.983C308 198.021 308 198.059 308 198.097C308 198.135 308 198.173 308 198.211C308 198.249 308 198.288 308 198.326C308 198.364 308 198.402 308 198.441C308 198.479 308 198.517 308 198.556C308 198.594 308 198.633 308 198.671C308 198.71 308 198.748 308 198.787C308 198.825 308 198.864 308 198.903C308 198.941 308 198.98 308 199.019C308 199.057 308 199.096 308 199.135C308 199.174 308 199.212 308 199.251C308 199.29 308 199.329 308 199.368C308 199.407 308 199.446 308 199.485C308 199.524 308 199.563 308 199.602C308 199.641 308 199.68 308 199.719C308 199.758 308 199.798 308 199.837C308 199.876 308 199.915 308 199.955C308 199.994 308 200.033 308 200.073C308 200.112 308 200.151 308 200.191C308 200.23 308 200.27 308 200.309C308 200.349 308 200.388 308 200.428C308 200.467 308 200.507 308 200.547C308 200.586 308 200.626 308 200.666C308 200.705 308 200.745 308 200.785C308 200.825 308 200.864 308 200.904C308 200.944 308 200.984 308 201.024C308 201.064 308 201.104 308 201.144C308 201.184 308 201.224 308 201.264C308 201.304 308 201.344 308 201.384C308 201.424 308 201.464 308 201.504C308 201.544 308 201.585 308 201.625C308 201.665 308 201.705 308 201.746C308 201.786 308 201.826 308 201.867C308 201.907 308 201.947 308 201.988C308 202.028 308 202.069 308 202.109C308 202.15 308 202.19 308 202.231C308 202.271 308 202.312 308 202.352C308 202.393 308 202.433 308 202.474C308 202.515 308 202.555 308 202.596C308 202.637 308 202.678 308 202.718C308 202.759 308 202.8 308 202.841C308 202.882 308 202.922 308 202.963C308 203.004 308 203.045 308 203.086C308 203.127 308 203.168 308 203.209C308 203.25 308 203.291 308 203.332C308 203.373 308 203.414 308 203.455C308 203.496 308 203.537 308 203.579C308 203.62 308 203.661 308 203.702C308 203.743 308 203.785 308 203.826C308 203.867 308 203.909 308 203.95C308 203.991 308 204.033 308 204.074C308 204.115 308 204.157 308 204.198C308 204.24 308 204.281 308 204.322C308 204.364 308 204.405 308 204.447C308 204.488 308 204.53 308 204.572C308 204.613 308 204.655 308 204.696C308 204.738 308 204.78 308 204.821C308 204.863 308 204.905 308 204.946C308 204.988 308 205.03 308 205.072C308 205.114 308 205.155 308 205.197C308 205.239 308 205.281 308 205.323C308 205.365 308 205.406 308 205.448C308 205.49 308 205.532 308 205.574C308 205.616 308 205.658 308 205.7C308 205.742 308 205.784 308 205.826C308 205.868 308 205.91 308 205.952C308 205.995 308 206.037 308 206.079C308 206.121 308 206.163 308 206.205C308 206.247 308 206.29 308 206.332C308 206.374 308 206.416 308 206.459C308 206.501 308 206.543 308 206.586C308 206.628 308 206.67 308 206.713C308 206.755 308 206.797 308 206.84C308 206.882 308 206.924 308 206.967C308 207.009 308 207.052 308 207.094C308 207.137 308 207.179 308 207.222C308 207.264 308 207.307 308 207.349C308 207.392 308 207.434 308 207.477C308 207.52 308 207.562 308 207.605C308 207.648 308 207.69 308 207.733C308 207.775 308 207.818 308 207.861C308 207.904 308 207.946 308 207.989C308 208.032 308 208.075 308 208.117C308 208.16 308 208.203 308 208.246C308 208.288 308 208.331 308 208.374C308 208.417 308 208.46 308 208.503C308 208.546 308 208.588 308 208.631C308 208.674 308 208.717 308 208.76C308 208.803 308 208.846 308 208.889C308 208.932 308 208.975 308 209.018C308 209.061 308 209.104 308 209.147C308 209.19 308 209.233 308 209.276C308 209.319 308 209.362 308 209.406C308 209.449 308 209.492 308 209.535C308 209.578 308 209.621 308 209.664C308 209.707 308 209.751 308 209.794C308 209.837 308 209.88 308 209.923C308 209.967 308 210.01 308 210.053C308 210.096 308 210.14 308 210.183C308 210.226 308 210.269 308 210.313C308 210.356 308 210.399 308 210.443C308 210.486 308 210.529 308 210.573C308 210.616 308 210.659 308 210.703C308 210.746 308 210.789 308 210.833C308 210.876 308 210.92 308 210.963C308 211.006 308 211.05 308 211.093C308 211.137 308 211.18 308 211.224C308 211.267 308 211.311 308 211.354C308 211.398 308 211.441 308 211.485C308 211.528 308 211.572 308 211.615C308 211.659 308 211.702 308 211.746C308 211.789 308 211.833 308 211.877C308 211.92 308 211.964 308 212.007C308 212.051 308 212.094 308 212.138C308 212.182 308 212.225 308 212.269C308 212.313 308 212.356 308 212.4C308 212.443 308 212.487 308 212.531C308 212.574 308 212.618 308 212.662C308 212.706 308 212.749 308 212.793C308 212.837 308 212.88 308 212.924C308 212.968 308 213.011 308 213.055C308 213.099 308 213.143 308 213.186C308 213.23 308 213.274 308 213.318C308 213.361 308 213.405 308 213.449C308 213.493 308 213.536 308 213.58C308 213.624 308 213.668 308 213.712C308 213.755 308 213.799 308 213.843C308 213.887 308 213.931 308 213.974C308 214.018 308 214.062 308 214.106C308 214.15 308 214.194 308 214.237C308 214.281 308 214.325 308 214.369C308 214.413 308 214.457 308 214.501C308 214.544 308 214.588 308 214.632C308 214.676 308 214.72 308 214.764C308 214.808 308 214.852 308 214.895C308 214.939 308 214.983 308 215.027C308 215.071 308 215.115 308 215.159C308 215.203 308 215.247 308 215.291C308 215.334 308 215.378 308 215.422C308 215.466 308 215.51 308 215.554C308 215.598 308 215.642 308 215.686C308 215.73 308 215.774 308 215.818C308 215.862 308 215.905 308 215.949C308 215.993 308 216.037 308 216.081C308 216.125 308 216.169 308 216.213C308 216.257 308 216.301 308 216.345C308 216.389 308 216.433 308 216.477C308 216.521 308 216.564 308 216.608C308 216.652 308 216.696 308 216.74C308 216.784 308 216.828 308 216.872C308 216.916 308 216.96 308 217.004C308 217.048 308 217.092 308 217.136C308 217.18 308 217.224 308 217.268C308 217.311 308 217.355 308 217.399C308 217.443 308 217.487 308 217.531C308 217.575 308 217.619 308 217.663C308 217.707 308 217.751 308 217.795C308 217.839 308 217.883 308 217.927C308 217.97 308 218.014 308 218.058C308 218.102 308 218.146 308 218.19C308 218.234 308 218.278 308 218.322C308 218.366 308 218.41 308 218.453C308 218.497 308 218.541 308 218.585C308 218.629 308 218.673 308 218.717C308 218.761 308 218.805 308 218.848C308 218.892 308 218.936 308 218.98C308 219.024 308 219.068 308 219.112C308 219.156 308 219.199 308 219.243C308 219.287 308 219.331 308 219.375C308 219.419 308 219.462 308 219.506C308 219.55 308 219.594 308 219.638C308 219.682 308 219.725 308 219.769C308 219.813 308 219.857 308 219.901C308 219.944 308 219.988 308 220.032C308 220.076 308 220.119 308 220.163C308 220.207 308 220.251 308 220.295C308 220.338 308 220.382 308 220.426C308 220.47 308 220.513 308 220.557C308 220.601 308 220.644 308 220.688C308 220.732 308 220.776 308 220.819C308 220.863 308 220.907 308 220.95C308 220.994 308 221.038 308 221.081C308 221.125 308 221.169 308 221.212C308 221.256 308 221.3 308 221.343C308 221.387 308 221.43 308 221.474C308 221.518 308 221.561 308 221.605C308 221.648 308 221.692 308 221.736C308 221.779 308 221.823 308 221.866C308 221.91 308 221.953 308 221.997C308 222.04 308 222.084 308 222.127C308 222.171 308 222.214 308 222.258C308 222.301 308 222.345 308 222.388C308 222.432 308 222.475 308 222.519C308 222.562 308 222.605 308 222.649C308 222.692 308 222.736 308 222.779C308 222.822 308 222.866 308 222.909C308 222.953 308 222.996 308 223.039C308 223.083 308 223.126 308 223.169C308 223.213 308 223.256 308 223.299C308 223.342 308 223.386 308 223.429C308 223.472 308 223.515 308 223.559C308 223.602 308 223.645 308 223.688C308 223.732 308 223.775 308 223.818C308 223.861 308 223.904 308 223.947C308 223.991 308 224.034 308 224.077C308 224.12 308 224.163 308 224.206C308 224.249 308 224.292 308 224.335C308 224.378 308 224.421 308 224.465C308 224.508 308 224.551 308 224.594C308 224.637 308 224.68 308 224.722C308 224.765 308 224.808 308 224.851C308 224.894 308 224.937 308 224.98C308 225.023 308 225.066 308 225.109C308 225.152 308 225.194 308 225.237C308 225.28 308 225.323 308 225.366C308 225.409 308 225.451 308 225.494C308 225.537 308 225.58 308 225.622C308 225.665 308 225.708 308 225.75C308 225.793 308 225.836 308 225.878C308 225.921 308 225.964 308 226.006C308 226.049 308 226.092 308 226.134C308 226.177 308 226.219 308 226.262C308 226.304 308 226.347 308 226.389C308 226.432 308 226.474 308 226.517C308 226.559 308 226.602 308 226.644C308 226.687 308 226.729 308 226.771C308 226.814 308 226.856 308 226.899C308 226.941 308 226.983 308 227.025C308 227.068 308 227.11 308 227.152C308 227.195 308 227.237 308 227.279C308 227.321 308 227.363 308 227.406C308 227.448 308 227.49 308 227.532C308 227.574 308 227.616 308 227.658C308 227.701 308 227.743 308 227.785C308 227.827 308 227.869 308 227.911C308 227.953 308 227.995 308 228.037C308 228.079 308 228.12 308 228.162C308 228.204 308 228.246 308 228.288C308 228.33 308 228.372 308 228.414C308 228.455 308 228.497 308 228.539C308 228.581 308 228.622 308 228.664C308 228.706 308 228.747 308 228.789C308 228.831 308 228.872 308 228.914C308 228.956 308 228.997 308 229.039C308 229.08 308 229.122 308 229.163C308 229.205 308 229.246 308 229.288C308 229.329 308 229.371 308 229.412C308 229.454 308 229.495 308 229.536C308 229.578 308 229.619 308 229.66C308 229.702 308 229.743 308 229.784C308 229.826 308 229.867 308 229.908C308 229.949 308 229.99 308 230.031C308 230.073 308 230.114 308 230.155C308 230.196 308 230.237 308 230.278C308 230.319 308 230.36 308 230.401C308 230.442 308 230.483 308 230.524C308 230.565 308 230.606 308 230.647C308 230.687 308 230.728 308 230.769C308 230.81 308 230.851 308 230.891C308 230.932 308 230.973 308 231.014C308 231.054 308 231.095 308 231.136C308 231.176 308 231.217 308 231.257C308 231.298 308 231.339 308 231.379C308 231.42 308 231.46 308 231.501C308 231.541 308 231.581 308 231.622C308 231.662 308 231.703 308 231.743C308 231.783 308 231.823 308 231.864C308 231.904 308 231.944 308 231.984C308 232.025 308 232.065 308 232.105C308 232.145 308 232.185 308 232.225C308 232.265 308 232.305 308 232.345C308 232.386 308 232.425 308 232.465C308 232.505 308 232.545 308 232.585C308 232.625 308 232.665 308 232.705C308 232.745 308 232.784 308 232.824C308 232.864 308 232.904 308 232.943C308 232.983 308 233.023 308 233.062C308 233.102 308 233.141 308 233.181C308 233.221 308 233.26 308 233.3C308 233.339 308 233.378 308 233.418C308 233.457 308 233.497 308 233.536C308 233.575 308 233.615 308 233.654C308 233.693 308 233.732 308 233.772C308 233.811 308 233.85 308 233.889C308 233.928 308 233.967 308 234.006C308 234.046 308 234.085 308 234.124C308 234.163 308 234.201 308 234.24C308 234.279 308 234.318 308 234.357C308 234.396 308 234.435 308 234.473C308 234.512 308 234.551 308 234.59C308 234.628 308 234.667 308 234.706C308 234.744 308 234.783 308 234.821C308 234.86 308 234.898 308 234.937C308 234.975 308 235.014 308 235.052C308 235.091 308 235.129 308 235.167C308 235.205 308 235.244 308 235.282C308 235.32 308 235.358 308 235.397C308 235.435 308 235.473 308 235.511C308 235.549 308 235.587 308 235.625C308 235.663 308 235.701 308 235.739C308 235.777 308 235.815 308 235.853C308 235.89 308 235.928 308 235.966C308 236.004 308 236.041 308 236.079C308 236.117 308 236.154 308 236.192C308 236.23 308 236.267 308 236.305C308 236.342 308 236.38 308 236.417C308 236.455 308 236.492 308 236.529C308 236.567 308 236.604 308 236.641C308 236.678 308 236.716 308 236.753C308 236.79 308 236.827 308 236.864C308 236.901 308 236.938 308 236.975C308 237.012 308 237.049 308 237.086C308 237.123 308 237.16 308 237.197C308 237.234 308 237.271 308 237.307C308 237.344 308 237.381 308 237.417C308 237.454 308 237.491 308 237.527C308 237.564 308 237.6 308 237.637C308 237.673 308 237.71 308 237.746C308 237.783 308 237.819 308 237.855C308 237.892 308 237.928 308 237.964C308 238 308 238.036 308 238.073C308 238.109 308 238.145 308 238.181C308 238.217 308 238.253 308 238.289C308 238.325 308 238.361 308 238.396C308 238.432 308 238.468 308 238.504C308 238.54 308 238.575 308 238.611C308 238.647 308 238.682 308 238.718C308 238.753 308 238.789 308 238.824C308 238.86 308 238.895 308 238.931C308 238.966 308 239.001 308 239.037C308 239.072 308 239.107 308 239.142C308 239.178 308 239.213 308 239.248C308 239.283 308 239.318 308 239.353C308 239.388 308 239.423 308 239.458C308 239.493 308 239.528 308 239.562C308 239.597 308 239.632 308 239.667C308 239.701 308 239.736 308 239.771C308 239.805 308 239.84 308 239.874C308 239.909 308 239.943 308 239.977C308 240.012 308 240.046 308 240.081C308 240.115 308 240.149 308 240.183C308 240.217 308 240.252 308 240.286C308 240.32 308 240.354 308 240.388C308 240.422 308 240.456 308 240.49C308 240.524 308 240.557 308 240.591C308 240.625 308 240.659 308 240.692C308 240.726 308 240.76 308 240.793C308 240.827 308 240.86 308 240.894C308 240.927 308 240.961 308 240.994C308 241.027 308 241.061 308 241.094C308 241.127 308 241.16 308 241.194C308 241.227 308 241.26 308 241.293C308 241.326 308 241.359 308 241.392C308 241.425 308 241.458 308 241.491C308 241.523 308 241.556 308 241.589C308 241.622 308 241.654 308 241.687C308 241.72 308 241.752 308 241.785C308 241.817 308 241.85 308 241.882C308 241.914 308 241.947 308 241.979C308 242.011 308 242.043 308 242.076C308 242.108 308 242.14 308 242.172C308 242.204 308 242.236 308 242.268C308 242.3 308 242.332 308 242.364C308 242.395 308 242.427 308 242.459C308 242.491 308 242.522 308 242.554C308 242.585 308 242.617 308 242.649C308 242.68 308 242.711 308 242.743C308 242.774 308 242.805 308 242.837C308 242.868 308 242.899 308 242.93C308 242.961 308 242.993 308 243.024C308 243.055 308 243.086 308 243.116C308 243.147 308 243.178 308 243.209C308 243.24 308 243.271 308 243.301C308 243.332 308 243.362 308 243.393C308 243.424 308 243.454 308 243.485C308 243.515 308 243.545 308 243.576C308 243.606 308 243.636 308 243.666C308 243.697 308 243.727 308 243.757C308 243.787 308 243.817 308 243.847C308 243.877 308 243.907 308 243.936C308 243.966 308 243.996 308 244.026C308 244.055 308 244.085 308 244.115C308 244.144 308 244.174 308 244.203C308 244.233 308 244.262 308 244.291C308 244.321 308 244.35 308 244.379C308 244.408 308 244.438 308 244.467C308 244.496 308 244.525 308 244.554C308 244.583 308 244.612 308 244.64C308 244.669 308 244.698 308 244.727C308 244.755 308 244.784 308 244.813C308 244.841 308 244.87 308 244.898C308 244.927 308 244.955 308 244.983C308 245.012 308 245.04 308 245.068C308 245.096 308 245.124 308 245.152C308 245.18 308 245.208 308 245.236C308 245.264 308 245.292 308 245.32C308 245.348 308 245.376 308 245.403C308 245.431 308 245.458 308 245.486C308 245.514 308 245.541 308 245.568C308 245.596 308 245.623 308 245.65C308 245.678 308 245.705 308 245.732C308 245.759 308 245.786 308 245.813C308 245.84 308 245.867 308 245.894C308 245.921 308 245.948 308 245.974C308 246.001 308 246.028 308 246.054C308 246.081 308 246.108 308 246.134C308 246.161 308 246.187 308 246.213C308 246.24 308 246.266 308 246.292C308 246.318 308 246.344 308 246.37C308 246.396 308 246.422 308 246.448C308 246.474 308 246.5 308 246.526C308 246.552 308 246.577 308 246.603C308 246.629 308 246.654 308 246.68C308 246.705 308 246.731 308 246.756C308 246.781 308 246.807 308 246.832C308 246.857 308 246.882 308 246.907C308 246.932 308 246.957 308 246.982C308 247.007 308 247.032 308 247.057C308 247.082 308 247.106 308 247.131C308 247.156 308 247.18 308 247.205C308 247.229 308 247.254 308 247.278C308 247.302 308 247.327 308 247.351C308 247.375 308 247.399 308 247.423C308 247.447 308 247.471 308 247.495C308 247.519 308 247.543 308 247.567C308 247.591 308 247.614 308 247.638C308 247.662 308 247.685 308 247.709C308 247.732 308 247.756 308 247.779C308 247.802 308 247.826 308 247.849C308 247.872 308 247.895 308 247.918C308 247.941 308 247.964 308 247.987C308 248.01 308 248.033 308 248.055C308 248.078 308 248.101 308 248.123C308 248.146 308 248.169 308 248.191C308 248.213 308 248.236 308 248.258C308 248.28 308 248.303 308 248.325C308 248.347 308 248.369 308 248.391C308 248.413 308 248.435 308 248.457C308 248.479 308 248.5 308 248.522C308 248.544 308 248.565 308 248.587C308 248.608 308 248.63 308 248.651C308 248.672 308 248.694 308 248.715C308 248.736 308 248.757 308 248.778C308 248.799 308 248.82 308 248.841C308 248.862 308 248.883 308 248.904C308 248.925 308 248.945 308 248.966C308 248.986 308 249.007 308 249.027C308 249.048 308 249.068 308 249.088C308 249.109 308 249.129 308 249.149C308 249.169 308 249.189 308 249.209C308 249.229 308 249.249 308 249.269C308 249.289 308 249.308 308 249.328C308 249.348 308 249.367 308 249.387C308 249.406 308 249.425 308 249.445C308 249.464 308 249.483 308 249.502C308 249.522 308 249.541 308 249.56C308 249.579 308 249.598 308 249.616C308 249.635 308 249.654 308 249.673C308 249.691 308 249.71 308 249.728C308 249.747 308 249.765 308 249.784C308 249.802 308 249.82 308 249.838C308 249.857 308 249.875 308 249.893C308 249.911 308 249.929 308 249.946C308 249.964 308 249.982 308 250C308 250.017 308 250.035 308 250.052C308 250.07 308 250.087 308 250.105C308 250.122 308 250.139 308 250.156C308 250.174 308 250.191 308 250.208C308 250.225 308 250.242 308 250.258C308 250.275 308 250.292 308 250.309C308 250.325 308 250.342 308 250.358C308 250.375 308 250.391 308 250.408C308 250.424 308 250.44 308 250.456C308 250.472 308 250.489 308 250.504C308 250.52 308 250.536 308 250.552C308 250.568 308 250.584 308 250.599C308 250.615 308 250.63 308 250.646C308 250.661 308 250.677 308 250.692C308 250.707 308 250.722 308 250.738C308 250.753 308 250.768 308 250.783C308 250.798 308 250.812 308 250.827C308 250.842 308 250.857 308 250.871C308 250.886 308 250.9 308 250.915C308 250.929 308 250.943 308 250.958C308 250.972 308 250.986 308 251H318ZM308 185H127V195H308V185ZM318 194.995C318 189.465 313.516 185 308 185V195C308.007 195 308.009 195.001 308.007 195C308.006 195 308.004 194.999 308.002 194.998C307.998 194.997 308 194.997 308.003 195C308.006 195.003 308.005 195.003 308.003 194.998C308.001 194.996 308.001 194.993 308 194.99C307.999 194.987 308 194.988 308 194.995H318Z" fill="url(#paint0_linear_172_47)"/>
<path d="M528.098 194.536C530.051 196.488 533.217 196.488 535.169 194.536L566.989 162.716C568.942 160.763 568.942 157.597 566.989 155.645C565.037 153.692 561.871 153.692 559.918 155.645L531.634 183.929L503.35 155.645C501.397 153.692 498.231 153.692 496.279 155.645C494.326 157.597 494.326 160.763 496.279 162.716L528.098 194.536ZM342 73C339.239 73 337 75.2386 337 78C337 80.7614 339.239 83 342 83V73ZM536.634 191V123.154H526.634V191H536.634ZM536.634 123.154H596V113.154H536.634V123.154ZM606 113.154V83H596V113.154H606ZM596 73H342V83H596V73ZM606 83C606 77.4772 601.523 73 596 73V83L596 83H606ZM596 123.154C601.523 123.154 606 118.677 606 113.154H596L596 113.154V123.154ZM536.634 123.154L536.634 123.154V113.154C531.111 113.154 526.634 117.631 526.634 123.154H536.634Z" fill="url(#paint1_linear_172_47)"/>
<path d="M233 341.5C235.761 341.5 238 339.261 238 336.5C238 333.739 235.761 331.5 233 331.5V341.5ZM40.5355 261.464C38.5829 259.512 35.4171 259.512 33.4645 261.464L1.64466 293.284C-0.307961 295.237 -0.307961 298.403 1.64466 300.355C3.59728 302.308 6.76311 302.308 8.71573 300.355L37 272.071L65.2843 300.355C67.2369 302.308 70.4027 302.308 72.3553 300.355C74.308 298.403 74.308 295.237 72.3553 293.284L40.5355 261.464ZM233 331.5H42V341.5H233V331.5ZM42 331.5V265H32V331.5H42ZM42 331.5L42 331.5H32C32 337.023 36.4771 341.5 42 341.5V331.5Z" fill="url(#paint2_linear_172_47)"/>
<path d="M28 209C28 211.761 30.2386 214 33 214C35.7614 214 38 211.761 38 209H28ZM286.536 81.5355C288.488 79.5829 288.488 76.4171 286.536 74.4645L254.716 42.6447C252.763 40.692 249.597 40.692 247.645 42.6447C245.692 44.5973 245.692 47.7631 247.645 49.7157L275.929 78L247.645 106.284C245.692 108.237 245.692 111.403 247.645 113.355C249.597 115.308 252.763 115.308 254.716 113.355L286.536 81.5355ZM38 209C38 208.986 38 208.971 38 208.956C38 208.941 38 208.925 38 208.91C38 208.894 38 208.878 38 208.862C38 208.846 38 208.829 38 208.813C38 208.796 38 208.779 38 208.762C38 208.744 38 208.727 38 208.709C38 208.691 38 208.673 38 208.655C38 208.636 38 208.618 38 208.599C38 208.58 38 208.561 38 208.541C38 208.522 38 208.502 38 208.482C38 208.462 38 208.442 38 208.421C38 208.401 38 208.38 38 208.359C38 208.338 38 208.316 38 208.295C38 208.273 38 208.251 38 208.229C38 208.207 38 208.185 38 208.162C38 208.139 38 208.116 38 208.093C38 208.07 38 208.046 38 208.022C38 207.999 38 207.975 38 207.95C38 207.926 38 207.902 38 207.877C38 207.852 38 207.827 38 207.801C38 207.776 38 207.75 38 207.725C38 207.699 38 207.673 38 207.646C38 207.62 38 207.593 38 207.566C38 207.539 38 207.512 38 207.485C38 207.457 38 207.43 38 207.402C38 207.374 38 207.345 38 207.317C38 207.289 38 207.26 38 207.231C38 207.202 38 207.173 38 207.143C38 207.114 38 207.084 38 207.054C38 207.024 38 206.994 38 206.963C38 206.933 38 206.902 38 206.871C38 206.84 38 206.809 38 206.777C38 206.745 38 206.714 38 206.682C38 206.65 38 206.617 38 206.585C38 206.552 38 206.519 38 206.486C38 206.453 38 206.42 38 206.387C38 206.353 38 206.319 38 206.285C38 206.251 38 206.217 38 206.182C38 206.148 38 206.113 38 206.078C38 206.043 38 206.008 38 205.972C38 205.937 38 205.901 38 205.865C38 205.829 38 205.793 38 205.756C38 205.72 38 205.683 38 205.646C38 205.609 38 205.572 38 205.535C38 205.497 38 205.459 38 205.421C38 205.383 38 205.345 38 205.307C38 205.268 38 205.23 38 205.191C38 205.152 38 205.113 38 205.073C38 205.034 38 204.994 38 204.955C38 204.915 38 204.875 38 204.834C38 204.794 38 204.753 38 204.713C38 204.672 38 204.631 38 204.59C38 204.548 38 204.507 38 204.465C38 204.423 38 204.381 38 204.339C38 204.297 38 204.254 38 204.212C38 204.169 38 204.126 38 204.083C38 204.04 38 203.997 38 203.953C38 203.909 38 203.866 38 203.821C38 203.777 38 203.733 38 203.689C38 203.644 38 203.599 38 203.554C38 203.509 38 203.464 38 203.419C38 203.373 38 203.328 38 203.282C38 203.236 38 203.19 38 203.143C38 203.097 38 203.051 38 203.004C38 202.957 38 202.91 38 202.863C38 202.816 38 202.768 38 202.72C38 202.673 38 202.625 38 202.577C38 202.529 38 202.48 38 202.432C38 202.383 38 202.334 38 202.285C38 202.236 38 202.187 38 202.138C38 202.088 38 202.038 38 201.989C38 201.939 38 201.889 38 201.838C38 201.788 38 201.737 38 201.687C38 201.636 38 201.585 38 201.534C38 201.483 38 201.431 38 201.379C38 201.328 38 201.276 38 201.224C38 201.172 38 201.12 38 201.067C38 201.015 38 200.962 38 200.909C38 200.856 38 200.803 38 200.75C38 200.696 38 200.643 38 200.589C38 200.535 38 200.481 38 200.427C38 200.373 38 200.319 38 200.264C38 200.21 38 200.155 38 200.1C38 200.045 38 199.99 38 199.934C38 199.879 38 199.823 38 199.767C38 199.711 38 199.655 38 199.599C38 199.543 38 199.486 38 199.43C38 199.373 38 199.316 38 199.259C38 199.202 38 199.145 38 199.087C38 199.03 38 198.972 38 198.914C38 198.857 38 198.798 38 198.74C38 198.682 38 198.623 38 198.565C38 198.506 38 198.447 38 198.388C38 198.329 38 198.27 38 198.21C38 198.151 38 198.091 38 198.031C38 197.971 38 197.911 38 197.851C38 197.791 38 197.73 38 197.67C38 197.609 38 197.548 38 197.487C38 197.426 38 197.365 38 197.303C38 197.242 38 197.18 38 197.118C38 197.057 38 196.995 38 196.932C38 196.87 38 196.808 38 196.745C38 196.683 38 196.62 38 196.557C38 196.494 38 196.431 38 196.367C38 196.304 38 196.24 38 196.177C38 196.113 38 196.049 38 195.985C38 195.921 38 195.856 38 195.792C38 195.727 38 195.663 38 195.598C38 195.533 38 195.468 38 195.403C38 195.337 38 195.272 38 195.206C38 195.141 38 195.075 38 195.009C38 194.943 38 194.877 38 194.811C38 194.744 38 194.678 38 194.611C38 194.544 38 194.477 38 194.41C38 194.343 38 194.276 38 194.209C38 194.141 38 194.074 38 194.006C38 193.938 38 193.87 38 193.802C38 193.734 38 193.665 38 193.597C38 193.528 38 193.46 38 193.391C38 193.322 38 193.253 38 193.184C38 193.115 38 193.045 38 192.976C38 192.906 38 192.836 38 192.766C38 192.696 38 192.626 38 192.556C38 192.486 38 192.415 38 192.345C38 192.274 38 192.203 38 192.132C38 192.062 38 191.99 38 191.919C38 191.848 38 191.776 38 191.705C38 191.633 38 191.561 38 191.489C38 191.417 38 191.345 38 191.273C38 191.201 38 191.128 38 191.055C38 190.983 38 190.91 38 190.837C38 190.764 38 190.691 38 190.618C38 190.544 38 190.471 38 190.397C38 190.324 38 190.25 38 190.176C38 190.102 38 190.028 38 189.953C38 189.879 38 189.805 38 189.73C38 189.655 38 189.581 38 189.506C38 189.431 38 189.356 38 189.28C38 189.205 38 189.13 38 189.054C38 188.978 38 188.903 38 188.827C38 188.751 38 188.675 38 188.599C38 188.522 38 188.446 38 188.37C38 188.293 38 188.216 38 188.139C38 188.063 38 187.986 38 187.908C38 187.831 38 187.754 38 187.677C38 187.599 38 187.521 38 187.444C38 187.366 38 187.288 38 187.21C38 187.132 38 187.054 38 186.975C38 186.897 38 186.818 38 186.74C38 186.661 38 186.582 38 186.503C38 186.424 38 186.345 38 186.266C38 186.186 38 186.107 38 186.027C38 185.948 38 185.868 38 185.788C38 185.708 38 185.628 38 185.548C38 185.468 38 185.388 38 185.307C38 185.227 38 185.146 38 185.065C38 184.985 38 184.904 38 184.823C38 184.742 38 184.66 38 184.579C38 184.498 38 184.416 38 184.335C38 184.253 38 184.171 38 184.089C38 184.007 38 183.925 38 183.843C38 183.761 38 183.679 38 183.596C38 183.514 38 183.431 38 183.348C38 183.266 38 183.183 38 183.1C38 183.017 38 182.934 38 182.85C38 182.767 38 182.684 38 182.6C38 182.517 38 182.433 38 182.349C38 182.265 38 182.181 38 182.097C38 182.013 38 181.929 38 181.844C38 181.76 38 181.676 38 181.591C38 181.506 38 181.422 38 181.337C38 181.252 38 181.167 38 181.082C38 180.996 38 180.911 38 180.826C38 180.74 38 180.655 38 180.569C38 180.483 38 180.397 38 180.312C38 180.226 38 180.14 38 180.053C38 179.967 38 179.881 38 179.794C38 179.708 38 179.621 38 179.535C38 179.448 38 179.361 38 179.274C38 179.187 38 179.1 38 179.013C38 178.926 38 178.838 38 178.751C38 178.664 38 178.576 38 178.488C38 178.401 38 178.313 38 178.225C38 178.137 38 178.049 38 177.961C38 177.872 38 177.784 38 177.696C38 177.607 38 177.519 38 177.43C38 177.342 38 177.253 38 177.164C38 177.075 38 176.986 38 176.897C38 176.808 38 176.718 38 176.629C38 176.54 38 176.45 38 176.361C38 176.271 38 176.181 38 176.092C38 176.002 38 175.912 38 175.822C38 175.732 38 175.642 38 175.551C38 175.461 38 175.371 38 175.28C38 175.19 38 175.099 38 175.008C38 174.918 38 174.827 38 174.736C38 174.645 38 174.554 38 174.463C38 174.371 38 174.28 38 174.189C38 174.097 38 174.006 38 173.914C38 173.823 38 173.731 38 173.639C38 173.547 38 173.456 38 173.364C38 173.272 38 173.179 38 173.087C38 172.995 38 172.903 38 172.81C38 172.718 38 172.625 38 172.533C38 172.44 38 172.347 38 172.254C38 172.161 38 172.069 38 171.975C38 171.882 38 171.789 38 171.696C38 171.603 38 171.509 38 171.416C38 171.322 38 171.229 38 171.135C38 171.042 38 170.948 38 170.854C38 170.76 38 170.666 38 170.572C38 170.478 38 170.384 38 170.29C38 170.196 38 170.101 38 170.007C38 169.912 38 169.818 38 169.723C38 169.629 38 169.534 38 169.439C38 169.344 38 169.249 38 169.154C38 169.059 38 168.964 38 168.869C38 168.774 38 168.679 38 168.583C38 168.488 38 168.392 38 168.297C38 168.201 38 168.106 38 168.01C38 167.914 38 167.819 38 167.723C38 167.627 38 167.531 38 167.435C38 167.339 38 167.242 38 167.146C38 167.05 38 166.954 38 166.857C38 166.761 38 166.664 38 166.568C38 166.471 38 166.374 38 166.278C38 166.181 38 166.084 38 165.987C38 165.89 38 165.793 38 165.696C38 165.599 38 165.502 38 165.405C38 165.307 38 165.21 38 165.113C38 165.015 38 164.918 38 164.82C38 164.723 38 164.625 38 164.527C38 164.429 38 164.332 38 164.234C38 164.136 38 164.038 38 163.94C38 163.842 38 163.744 38 163.645C38 163.547 38 163.449 38 163.351C38 163.252 38 163.154 38 163.055C38 162.957 38 162.858 38 162.76C38 162.661 38 162.562 38 162.463C38 162.365 38 162.266 38 162.167C38 162.068 38 161.969 38 161.87C38 161.771 38 161.672 38 161.572C38 161.473 38 161.374 38 161.274C38 161.175 38 161.076 38 160.976C38 160.877 38 160.777 38 160.677C38 160.578 38 160.478 38 160.378C38 160.279 38 160.179 38 160.079C38 159.979 38 159.879 38 159.779C38 159.679 38 159.579 38 159.479C38 159.379 38 159.278 38 159.178C38 159.078 38 158.977 38 158.877C38 158.777 38 158.676 38 158.576C38 158.475 38 158.374 38 158.274C38 158.173 38 158.072 38 157.972C38 157.871 38 157.77 38 157.669C38 157.568 38 157.467 38 157.366C38 157.265 38 157.164 38 157.063C38 156.962 38 156.861 38 156.759C38 156.658 38 156.557 38 156.456C38 156.354 38 156.253 38 156.151C38 156.05 38 155.948 38 155.847C38 155.745 38 155.644 38 155.542C38 155.44 38 155.339 38 155.237C38 155.135 38 155.033 38 154.931C38 154.829 38 154.727 38 154.625C38 154.523 38 154.421 38 154.319C38 154.217 38 154.115 38 154.013C38 153.911 38 153.809 38 153.706C38 153.604 38 153.502 38 153.399C38 153.297 38 153.194 38 153.092C38 152.99 38 152.887 38 152.784C38 152.682 38 152.579 38 152.477C38 152.374 38 152.271 38 152.169C38 152.066 38 151.963 38 151.86C38 151.757 38 151.655 38 151.552C38 151.449 38 151.346 38 151.243C38 151.14 38 151.037 38 150.934C38 150.831 38 150.728 38 150.625C38 150.521 38 150.418 38 150.315C38 150.212 38 150.109 38 150.005C38 149.902 38 149.799 38 149.695C38 149.592 38 149.488 38 149.385C38 149.282 38 149.178 38 149.075C38 148.971 38 148.868 38 148.764C38 148.66 38 148.557 38 148.453C38 148.35 38 148.246 38 148.142C38 148.038 38 147.935 38 147.831C38 147.727 38 147.623 38 147.52C38 147.416 38 147.312 38 147.208C38 147.104 38 147 38 146.896C38 146.792 38 146.688 38 146.584C38 146.48 38 146.376 38 146.272C38 146.168 38 146.064 38 145.96C38 145.856 38 145.752 38 145.648C38 145.543 38 145.439 38 145.335C38 145.231 38 145.127 38 145.022C38 144.918 38 144.814 38 144.709C38 144.605 38 144.501 38 144.396C38 144.292 38 144.188 38 144.083C38 143.979 38 143.875 38 143.77C38 143.666 38 143.561 38 143.457C38 143.352 38 143.248 38 143.143C38 143.039 38 142.934 38 142.83C38 142.725 38 142.621 38 142.516C38 142.412 38 142.307 38 142.202C38 142.098 38 141.993 38 141.889C38 141.784 38 141.679 38 141.575C38 141.47 38 141.365 38 141.261C38 141.156 38 141.051 38 140.946C38 140.842 38 140.737 38 140.632C38 140.528 38 140.423 38 140.318C38 140.213 38 140.109 38 140.004C38 139.899 38 139.794 38 139.689C38 139.585 38 139.48 38 139.375C38 139.27 38 139.165 38 139.061C38 138.956 38 138.851 38 138.746C38 138.641 38 138.536 38 138.432C38 138.327 38 138.222 38 138.117C38 138.012 38 137.907 38 137.802C38 137.698 38 137.593 38 137.488C38 137.383 38 137.278 38 137.173C38 137.068 38 136.963 38 136.859C38 136.754 38 136.649 38 136.544C38 136.439 38 136.334 38 136.229C38 136.124 38 136.02 38 135.915C38 135.81 38 135.705 38 135.6C38 135.495 38 135.39 38 135.286C38 135.181 38 135.076 38 134.971C38 134.866 38 134.761 38 134.656C38 134.552 38 134.447 38 134.342C38 134.237 38 134.132 38 134.027C38 133.923 38 133.818 38 133.713C38 133.608 38 133.503 38 133.399C38 133.294 38 133.189 38 133.084C38 132.98 38 132.875 38 132.77C38 132.665 38 132.561 38 132.456C38 132.351 38 132.246 38 132.142C38 132.037 38 131.932 38 131.828C38 131.723 38 131.618 38 131.514C38 131.409 38 131.304 38 131.2C38 131.095 38 130.991 38 130.886C38 130.781 38 130.677 38 130.572C38 130.468 38 130.363 38 130.259C38 130.154 38 130.05 38 129.945C38 129.841 38 129.736 38 129.632C38 129.527 38 129.423 38 129.319C38 129.214 38 129.11 38 129.005C38 128.901 38 128.797 38 128.692C38 128.588 38 128.484 38 128.379C38 128.275 38 128.171 38 128.067C38 127.962 38 127.858 38 127.754C38 127.65 38 127.546 38 127.442C38 127.337 38 127.233 38 127.129C38 127.025 38 126.921 38 126.817C38 126.713 38 126.609 38 126.505C38 126.401 38 126.297 38 126.193C38 126.089 38 125.986 38 125.882C38 125.778 38 125.674 38 125.57C38 125.466 38 125.363 38 125.259C38 125.155 38 125.051 38 124.948C38 124.844 38 124.741 38 124.637C38 124.533 38 124.43 38 124.326C38 124.223 38 124.119 38 124.016C38 123.912 38 123.809 38 123.705C38 123.602 38 123.499 38 123.395C38 123.292 38 123.189 38 123.085C38 122.982 38 122.879 38 122.776C38 122.673 38 122.57 38 122.466C38 122.363 38 122.26 38 122.157C38 122.054 38 121.951 38 121.848C38 121.745 38 121.643 38 121.54C38 121.437 38 121.334 38 121.231C38 121.128 38 121.026 38 120.923C38 120.82 38 120.718 38 120.615C38 120.513 38 120.41 38 120.308C38 120.205 38 120.103 38 120C38 119.898 38 119.795 38 119.693C38 119.591 38 119.488 38 119.386C38 119.284 38 119.182 38 119.08C38 118.978 38 118.876 38 118.774C38 118.671 38 118.57 38 118.468C38 118.366 38 118.264 38 118.162C38 118.06 38 117.958 38 117.857C38 117.755 38 117.653 38 117.552C38 117.45 38 117.348 38 117.247C38 117.145 38 117.044 38 116.943C38 116.841 38 116.74 38 116.639C38 116.537 38 116.436 38 116.335C38 116.234 38 116.133 38 116.032C38 115.93 38 115.829 38 115.729C38 115.628 38 115.527 38 115.426C38 115.325 38 115.224 38 115.124C38 115.023 38 114.922 38 114.822C38 114.721 38 114.62 38 114.52C38 114.42 38 114.319 38 114.219C38 114.118 38 114.018 38 113.918C38 113.818 38 113.718 38 113.618C38 113.517 38 113.417 38 113.317C38 113.218 38 113.118 38 113.018C38 112.918 38 112.818 38 112.719C38 112.619 38 112.519 38 112.42C38 112.32 38 112.221 38 112.121C38 112.022 38 111.922 38 111.823C38 111.724 38 111.625 38 111.526C38 111.426 38 111.327 38 111.228C38 111.129 38 111.03 38 110.932C38 110.833 38 110.734 38 110.635C38 110.537 38 110.438 38 110.339C38 110.241 38 110.142 38 110.044C38 109.945 38 109.847 38 109.749C38 109.651 38 109.552 38 109.454C38 109.356 38 109.258 38 109.16C38 109.062 38 108.964 38 108.867C38 108.769 38 108.671 38 108.573C38 108.476 38 108.378 38 108.281C38 108.183 38 108.086 38 107.989C38 107.891 38 107.794 38 107.697C38 107.6 38 107.503 38 107.406C38 107.309 38 107.212 38 107.115C38 107.018 38 106.921 38 106.825C38 106.728 38 106.631 38 106.535C38 106.438 38 106.342 38 106.246C38 106.149 38 106.053 38 105.957C38 105.861 38 105.765 38 105.669C38 105.573 38 105.477 38 105.381C38 105.285 38 105.19 38 105.094C38 104.998 38 104.903 38 104.807C38 104.712 38 104.617 38 104.521C38 104.426 38 104.331 38 104.236C38 104.141 38 104.046 38 103.951C38 103.856 38 103.761 38 103.667C38 103.572 38 103.477 38 103.383C38 103.288 38 103.194 38 103.1C38 103.005 38 102.911 38 102.817C38 102.723 38 102.629 38 102.535C38 102.441 38 102.347 38 102.253C38 102.16 38 102.066 38 101.972C38 101.879 38 101.785 38 101.692C38 101.599 38 101.506 38 101.412C38 101.319 38 101.226 38 101.133C38 101.04 38 100.948 38 100.855C38 100.762 38 100.669 38 100.577C38 100.484 38 100.392 38 100.3C38 100.207 38 100.115 38 100.023C38 99.9309 38 99.8389 38 99.747C38 99.6551 38 99.5633 38 99.4716C38 99.38 38 99.2884 38 99.1969C38 99.1055 38 99.0141 38 98.9228C38 98.8316 38 98.7405 38 98.6494C38 98.5584 38 98.4675 38 98.3767C38 98.2858 38 98.1951 38 98.1046C38 98.014 38 97.9235 38 97.8331C38 97.7428 38 97.6525 38 97.5624C38 97.4722 38 97.3822 38 97.2923C38 97.2024 38 97.1126 38 97.0229C38 96.9332 38 96.8436 38 96.7542C38 96.6647 38 96.5754 38 96.4861C38 96.3969 38 96.3078 38 96.2188C38 96.1298 38 96.041 38 95.9522C38 95.8635 38 95.7748 38 95.6863C38 95.5978 38 95.5094 38 95.4211C38 95.3328 38 95.2447 38 95.1567C38 95.0686 38 94.9807 38 94.8929C38 94.8051 38 94.7174 38 94.6299C38 94.5424 38 94.4549 38 94.3676C38 94.2803 38 94.1931 38 94.1061C38 94.019 38 93.9321 38 93.8453C38 93.7585 38 93.6718 38 93.5853C38 93.4987 38 93.4123 38 93.326C38 93.2397 38 93.1535 38 93.0675C38 92.9814 38 92.8955 38 92.8097C38 92.7239 38 92.6383 38 92.5527C38 92.4672 38 92.3818 38 92.2965C38 92.2113 38 92.1261 38 92.0411C38 91.9561 38 91.8712 38 91.7865C38 91.7017 38 91.6171 38 91.5326C38 91.4482 38 91.3638 38 91.2796C38 91.1954 38 91.1113 38 91.0274C38 90.9434 38 90.8596 38 90.7759C38 90.6923 38 90.6087 38 90.5253C38 90.4419 38 90.3586 38 90.2755C38 90.1924 38 90.1094 38 90.0265C38 89.9437 38 89.861 38 89.7784C38 89.6958 38 89.6134 38 89.5311C38 89.4488 38 89.3666 38 89.2846C38 89.2026 38 89.1207 38 89.039C38 88.9573 38 88.8757 38 88.7942C38 88.7128 38 88.6315 38 88.5503C38 88.4692 38 88.3881 38 88.3073C38 88.2264 38 88.1457 38 88.0651C38 87.9845 38 87.9041 38 87.8238C38 87.7435 38 87.6633 38 87.5833C38 87.5033 38 87.4235 38 87.3438C38 87.2641 38 87.1845 38 87.1051C38 87.0257 38 86.9464 38 86.8673C38 86.7882 38 86.7092 38 86.6304C38 86.5516 38 86.4729 38 86.3944C38 86.3159 38 86.2376 38 86.1594C38 86.0812 38 86.0031 38 85.9252C38 85.8473 38 85.7696 38 85.692C38 85.6144 38 85.5369 38 85.4596C38 85.3824 38 85.3052 38 85.2282C38 85.1513 38 85.0745 38 84.9978C38 84.9211 38 84.8446 38 84.7683C38 84.6919 38 84.6157 38 84.5397C38 84.4637 38 84.3878 38 84.3121C38 84.2364 38 84.1608 38 84.0854C38 84.01 38 83.9348 38 83.8597C38 83.7846 38 83.7097 38 83.6349C38 83.5602 38 83.4856 38 83.4112C38 83.3367 38 83.2625 38 83.1884C38 83.1143 38 83.0403 38 82.9665H28C28 83.0403 28 83.1143 28 83.1884C28 83.2625 28 83.3367 28 83.4112C28 83.4856 28 83.5602 28 83.6349C28 83.7097 28 83.7846 28 83.8597C28 83.9348 28 84.01 28 84.0854C28 84.1608 28 84.2364 28 84.3121C28 84.3878 28 84.4637 28 84.5397C28 84.6157 28 84.6919 28 84.7683C28 84.8446 28 84.9211 28 84.9978C28 85.0745 28 85.1513 28 85.2282C28 85.3052 28 85.3824 28 85.4596C28 85.5369 28 85.6144 28 85.692C28 85.7696 28 85.8473 28 85.9252C28 86.0031 28 86.0812 28 86.1594C28 86.2376 28 86.3159 28 86.3944C28 86.4729 28 86.5516 28 86.6304C28 86.7092 28 86.7882 28 86.8673C28 86.9464 28 87.0257 28 87.1051C28 87.1845 28 87.2641 28 87.3438C28 87.4235 28 87.5033 28 87.5833C28 87.6633 28 87.7435 28 87.8238C28 87.9041 28 87.9845 28 88.0651C28 88.1457 28 88.2264 28 88.3073C28 88.3881 28 88.4692 28 88.5503C28 88.6315 28 88.7128 28 88.7942C28 88.8757 28 88.9573 28 89.039C28 89.1207 28 89.2026 28 89.2846C28 89.3666 28 89.4488 28 89.5311C28 89.6134 28 89.6958 28 89.7784C28 89.861 28 89.9437 28 90.0265C28 90.1094 28 90.1924 28 90.2755C28 90.3586 28 90.4419 28 90.5253C28 90.6087 28 90.6923 28 90.7759C28 90.8596 28 90.9434 28 91.0274C28 91.1113 28 91.1954 28 91.2796C28 91.3638 28 91.4482 28 91.5326C28 91.6171 28 91.7017 28 91.7865C28 91.8712 28 91.9561 28 92.0411C28 92.1261 28 92.2113 28 92.2965C28 92.3818 28 92.4672 28 92.5527C28 92.6383 28 92.7239 28 92.8097C28 92.8955 28 92.9814 28 93.0675C28 93.1535 28 93.2397 28 93.326C28 93.4123 28 93.4987 28 93.5853C28 93.6718 28 93.7585 28 93.8453C28 93.9321 28 94.019 28 94.1061C28 94.1931 28 94.2803 28 94.3676C28 94.4549 28 94.5424 28 94.6299C28 94.7174 28 94.8051 28 94.8929C28 94.9807 28 95.0686 28 95.1567C28 95.2447 28 95.3328 28 95.4211C28 95.5094 28 95.5978 28 95.6863C28 95.7748 28 95.8635 28 95.9522C28 96.041 28 96.1298 28 96.2188C28 96.3078 28 96.3969 28 96.4861C28 96.5754 28 96.6647 28 96.7542C28 96.8436 28 96.9332 28 97.0229C28 97.1126 28 97.2024 28 97.2923C28 97.3822 28 97.4722 28 97.5624C28 97.6525 28 97.7428 28 97.8331C28 97.9235 28 98.014 28 98.1046C28 98.1951 28 98.2858 28 98.3767C28 98.4675 28 98.5584 28 98.6494C28 98.7405 28 98.8316 28 98.9228C28 99.0141 28 99.1055 28 99.1969C28 99.2884 28 99.38 28 99.4716C28 99.5633 28 99.6551 28 99.747C28 99.8389 28 99.9309 28 100.023C28 100.115 28 100.207 28 100.3C28 100.392 28 100.484 28 100.577C28 100.669 28 100.762 28 100.855C28 100.948 28 101.04 28 101.133C28 101.226 28 101.319 28 101.412C28 101.506 28 101.599 28 101.692C28 101.785 28 101.879 28 101.972C28 102.066 28 102.16 28 102.253C28 102.347 28 102.441 28 102.535C28 102.629 28 102.723 28 102.817C28 102.911 28 103.005 28 103.1C28 103.194 28 103.288 28 103.383C28 103.477 28 103.572 28 103.667C28 103.761 28 103.856 28 103.951C28 104.046 28 104.141 28 104.236C28 104.331 28 104.426 28 104.521C28 104.617 28 104.712 28 104.807C28 104.903 28 104.998 28 105.094C28 105.19 28 105.285 28 105.381C28 105.477 28 105.573 28 105.669C28 105.765 28 105.861 28 105.957C28 106.053 28 106.149 28 106.246C28 106.342 28 106.438 28 106.535C28 106.631 28 106.728 28 106.825C28 106.921 28 107.018 28 107.115C28 107.212 28 107.309 28 107.406C28 107.503 28 107.6 28 107.697C28 107.794 28 107.891 28 107.989C28 108.086 28 108.183 28 108.281C28 108.378 28 108.476 28 108.573C28 108.671 28 108.769 28 108.867C28 108.964 28 109.062 28 109.16C28 109.258 28 109.356 28 109.454C28 109.552 28 109.651 28 109.749C28 109.847 28 109.945 28 110.044C28 110.142 28 110.241 28 110.339C28 110.438 28 110.537 28 110.635C28 110.734 28 110.833 28 110.932C28 111.03 28 111.129 28 111.228C28 111.327 28 111.426 28 111.526C28 111.625 28 111.724 28 111.823C28 111.922 28 112.022 28 112.121C28 112.221 28 112.32 28 112.42C28 112.519 28 112.619 28 112.719C28 112.818 28 112.918 28 113.018C28 113.118 28 113.218 28 113.317C28 113.417 28 113.517 28 113.618C28 113.718 28 113.818 28 113.918C28 114.018 28 114.118 28 114.219C28 114.319 28 114.42 28 114.52C28 114.62 28 114.721 28 114.822C28 114.922 28 115.023 28 115.124C28 115.224 28 115.325 28 115.426C28 115.527 28 115.628 28 115.729C28 115.829 28 115.93 28 116.032C28 116.133 28 116.234 28 116.335C28 116.436 28 116.537 28 116.639C28 116.74 28 116.841 28 116.943C28 117.044 28 117.145 28 117.247C28 117.348 28 117.45 28 117.552C28 117.653 28 117.755 28 117.857C28 117.958 28 118.06 28 118.162C28 118.264 28 118.366 28 118.468C28 118.57 28 118.671 28 118.774C28 118.876 28 118.978 28 119.08C28 119.182 28 119.284 28 119.386C28 119.488 28 119.591 28 119.693C28 119.795 28 119.898 28 120C28 120.103 28 120.205 28 120.308C28 120.41 28 120.513 28 120.615C28 120.718 28 120.82 28 120.923C28 121.026 28 121.128 28 121.231C28 121.334 28 121.437 28 121.54C28 121.643 28 121.745 28 121.848C28 121.951 28 122.054 28 122.157C28 122.26 28 122.363 28 122.466C28 122.57 28 122.673 28 122.776C28 122.879 28 122.982 28 123.085C28 123.189 28 123.292 28 123.395C28 123.499 28 123.602 28 123.705C28 123.809 28 123.912 28 124.016C28 124.119 28 124.223 28 124.326C28 124.43 28 124.533 28 124.637C28 124.741 28 124.844 28 124.948C28 125.051 28 125.155 28 125.259C28 125.363 28 125.466 28 125.57C28 125.674 28 125.778 28 125.882C28 125.986 28 126.089 28 126.193C28 126.297 28 126.401 28 126.505C28 126.609 28 126.713 28 126.817C28 126.921 28 127.025 28 127.129C28 127.233 28 127.337 28 127.442C28 127.546 28 127.65 28 127.754C28 127.858 28 127.962 28 128.067C28 128.171 28 128.275 28 128.379C28 128.484 28 128.588 28 128.692C28 128.797 28 128.901 28 129.005C28 129.11 28 129.214 28 129.319C28 129.423 28 129.527 28 129.632C28 129.736 28 129.841 28 129.945C28 130.05 28 130.154 28 130.259C28 130.363 28 130.468 28 130.572C28 130.677 28 130.781 28 130.886C28 130.991 28 131.095 28 131.2C28 131.304 28 131.409 28 131.514C28 131.618 28 131.723 28 131.828C28 131.932 28 132.037 28 132.142C28 132.246 28 132.351 28 132.456C28 132.561 28 132.665 28 132.77C28 132.875 28 132.98 28 133.084C28 133.189 28 133.294 28 133.399C28 133.503 28 133.608 28 133.713C28 133.818 28 133.923 28 134.027C28 134.132 28 134.237 28 134.342C28 134.447 28 134.552 28 134.656C28 134.761 28 134.866 28 134.971C28 135.076 28 135.181 28 135.286C28 135.39 28 135.495 28 135.6C28 135.705 28 135.81 28 135.915C28 136.02 28 136.124 28 136.229C28 136.334 28 136.439 28 136.544C28 136.649 28 136.754 28 136.859C28 136.963 28 137.068 28 137.173C28 137.278 28 137.383 28 137.488C28 137.593 28 137.698 28 137.802C28 137.907 28 138.012 28 138.117C28 138.222 28 138.327 28 138.432C28 138.536 28 138.641 28 138.746C28 138.851 28 138.956 28 139.061C28 139.165 28 139.27 28 139.375C28 139.48 28 139.585 28 139.689C28 139.794 28 139.899 28 140.004C28 140.109 28 140.213 28 140.318C28 140.423 28 140.528 28 140.632C28 140.737 28 140.842 28 140.946C28 141.051 28 141.156 28 141.261C28 141.365 28 141.47 28 141.575C28 141.679 28 141.784 28 141.889C28 141.993 28 142.098 28 142.202C28 142.307 28 142.412 28 142.516C28 142.621 28 142.725 28 142.83C28 142.934 28 143.039 28 143.143C28 143.248 28 143.352 28 143.457C28 143.561 28 143.666 28 143.77C28 143.875 28 143.979 28 144.083C28 144.188 28 144.292 28 144.396C28 144.501 28 144.605 28 144.709C28 144.814 28 144.918 28 145.022C28 145.127 28 145.231 28 145.335C28 145.439 28 145.543 28 145.648C28 145.752 28 145.856 28 145.96C28 146.064 28 146.168 28 146.272C28 146.376 28 146.48 28 146.584C28 146.688 28 146.792 28 146.896C28 147 28 147.104 28 147.208C28 147.312 28 147.416 28 147.52C28 147.623 28 147.727 28 147.831C28 147.935 28 148.038 28 148.142C28 148.246 28 148.35 28 148.453C28 148.557 28 148.66 28 148.764C28 148.868 28 148.971 28 149.075C28 149.178 28 149.282 28 149.385C28 149.488 28 149.592 28 149.695C28 149.799 28 149.902 28 150.005C28 150.109 28 150.212 28 150.315C28 150.418 28 150.521 28 150.625C28 150.728 28 150.831 28 150.934C28 151.037 28 151.14 28 151.243C28 151.346 28 151.449 28 151.552C28 151.655 28 151.757 28 151.86C28 151.963 28 152.066 28 152.169C28 152.271 28 152.374 28 152.477C28 152.579 28 152.682 28 152.784C28 152.887 28 152.99 28 153.092C28 153.194 28 153.297 28 153.399C28 153.502 28 153.604 28 153.706C28 153.809 28 153.911 28 154.013C28 154.115 28 154.217 28 154.319C28 154.421 28 154.523 28 154.625C28 154.727 28 154.829 28 154.931C28 155.033 28 155.135 28 155.237C28 155.339 28 155.44 28 155.542C28 155.644 28 155.745 28 155.847C28 155.948 28 156.05 28 156.151C28 156.253 28 156.354 28 156.456C28 156.557 28 156.658 28 156.759C28 156.861 28 156.962 28 157.063C28 157.164 28 157.265 28 157.366C28 157.467 28 157.568 28 157.669C28 157.77 28 157.871 28 157.972C28 158.072 28 158.173 28 158.274C28 158.374 28 158.475 28 158.576C28 158.676 28 158.777 28 158.877C28 158.977 28 159.078 28 159.178C28 159.278 28 159.379 28 159.479C28 159.579 28 159.679 28 159.779C28 159.879 28 159.979 28 160.079C28 160.179 28 160.279 28 160.378C28 160.478 28 160.578 28 160.677C28 160.777 28 160.877 28 160.976C28 161.076 28 161.175 28 161.274C28 161.374 28 161.473 28 161.572C28 161.672 28 161.771 28 161.87C28 161.969 28 162.068 28 162.167C28 162.266 28 162.365 28 162.463C28 162.562 28 162.661 28 162.76C28 162.858 28 162.957 28 163.055C28 163.154 28 163.252 28 163.351C28 163.449 28 163.547 28 163.645C28 163.744 28 163.842 28 163.94C28 164.038 28 164.136 28 164.234C28 164.332 28 164.429 28 164.527C28 164.625 28 164.723 28 164.82C28 164.918 28 165.015 28 165.113C28 165.21 28 165.307 28 165.405C28 165.502 28 165.599 28 165.696C28 165.793 28 165.89 28 165.987C28 166.084 28 166.181 28 166.278C28 166.374 28 166.471 28 166.568C28 166.664 28 166.761 28 166.857C28 166.954 28 167.05 28 167.146C28 167.242 28 167.339 28 167.435C28 167.531 28 167.627 28 167.723C28 167.819 28 167.914 28 168.01C28 168.106 28 168.201 28 168.297C28 168.392 28 168.488 28 168.583C28 168.679 28 168.774 28 168.869C28 168.964 28 169.059 28 169.154C28 169.249 28 169.344 28 169.439C28 169.534 28 169.629 28 169.723C28 169.818 28 169.912 28 170.007C28 170.101 28 170.196 28 170.29C28 170.384 28 170.478 28 170.572C28 170.666 28 170.76 28 170.854C28 170.948 28 171.042 28 171.135C28 171.229 28 171.322 28 171.416C28 171.509 28 171.603 28 171.696C28 171.789 28 171.882 28 171.975C28 172.069 28 172.161 28 172.254C28 172.347 28 172.44 28 172.533C28 172.625 28 172.718 28 172.81C28 172.903 28 172.995 28 173.087C28 173.179 28 173.272 28 173.364C28 173.456 28 173.547 28 173.639C28 173.731 28 173.823 28 173.914C28 174.006 28 174.097 28 174.189C28 174.28 28 174.371 28 174.463C28 174.554 28 174.645 28 174.736C28 174.827 28 174.918 28 175.008C28 175.099 28 175.19 28 175.28C28 175.371 28 175.461 28 175.551C28 175.642 28 175.732 28 175.822C28 175.912 28 176.002 28 176.092C28 176.181 28 176.271 28 176.361C28 176.45 28 176.54 28 176.629C28 176.718 28 176.808 28 176.897C28 176.986 28 177.075 28 177.164C28 177.253 28 177.342 28 177.43C28 177.519 28 177.607 28 177.696C28 177.784 28 177.872 28 177.961C28 178.049 28 178.137 28 178.225C28 178.313 28 178.401 28 178.488C28 178.576 28 178.664 28 178.751C28 178.838 28 178.926 28 179.013C28 179.1 28 179.187 28 179.274C28 179.361 28 179.448 28 179.535C28 179.621 28 179.708 28 179.794C28 179.881 28 179.967 28 180.053C28 180.14 28 180.226 28 180.312C28 180.397 28 180.483 28 180.569C28 180.655 28 180.74 28 180.826C28 180.911 28 180.996 28 181.082C28 181.167 28 181.252 28 181.337C28 181.422 28 181.506 28 181.591C28 181.676 28 181.76 28 181.844C28 181.929 28 182.013 28 182.097C28 182.181 28 182.265 28 182.349C28 182.433 28 182.517 28 182.6C28 182.684 28 182.767 28 182.85C28 182.934 28 183.017 28 183.1C28 183.183 28 183.266 28 183.348C28 183.431 28 183.514 28 183.596C28 183.679 28 183.761 28 183.843C28 183.925 28 184.007 28 184.089C28 184.171 28 184.253 28 184.335C28 184.416 28 184.498 28 184.579C28 184.66 28 184.742 28 184.823C28 184.904 28 184.985 28 185.065C28 185.146 28 185.227 28 185.307C28 185.388 28 185.468 28 185.548C28 185.628 28 185.708 28 185.788C28 185.868 28 185.948 28 186.027C28 186.107 28 186.186 28 186.266C28 186.345 28 186.424 28 186.503C28 186.582 28 186.661 28 186.74C28 186.818 28 186.897 28 186.975C28 187.054 28 187.132 28 187.21C28 187.288 28 187.366 28 187.444C28 187.521 28 187.599 28 187.677C28 187.754 28 187.831 28 187.908C28 187.986 28 188.063 28 188.139C28 188.216 28 188.293 28 188.37C28 188.446 28 188.522 28 188.599C28 188.675 28 188.751 28 188.827C28 188.903 28 188.978 28 189.054C28 189.13 28 189.205 28 189.28C28 189.356 28 189.431 28 189.506C28 189.581 28 189.655 28 189.73C28 189.805 28 189.879 28 189.953C28 190.028 28 190.102 28 190.176C28 190.25 28 190.324 28 190.397C28 190.471 28 190.544 28 190.618C28 190.691 28 190.764 28 190.837C28 190.91 28 190.983 28 191.055C28 191.128 28 191.201 28 191.273C28 191.345 28 191.417 28 191.489C28 191.561 28 191.633 28 191.705C28 191.776 28 191.848 28 191.919C28 191.99 28 192.062 28 192.132C28 192.203 28 192.274 28 192.345C28 192.415 28 192.486 28 192.556C28 192.626 28 192.696 28 192.766C28 192.836 28 192.906 28 192.976C28 193.045 28 193.115 28 193.184C28 193.253 28 193.322 28 193.391C28 193.46 28 193.528 28 193.597C28 193.665 28 193.734 28 193.802C28 193.87 28 193.938 28 194.006C28 194.074 28 194.141 28 194.209C28 194.276 28 194.343 28 194.41C28 194.477 28 194.544 28 194.611C28 194.678 28 194.744 28 194.811C28 194.877 28 194.943 28 195.009C28 195.075 28 195.141 28 195.206C28 195.272 28 195.337 28 195.403C28 195.468 28 195.533 28 195.598C28 195.663 28 195.727 28 195.792C28 195.856 28 195.921 28 195.985C28 196.049 28 196.113 28 196.177C28 196.24 28 196.304 28 196.367C28 196.431 28 196.494 28 196.557C28 196.62 28 196.683 28 196.745C28 196.808 28 196.87 28 196.932C28 196.995 28 197.057 28 197.118C28 197.18 28 197.242 28 197.303C28 197.365 28 197.426 28 197.487C28 197.548 28 197.609 28 197.67C28 197.73 28 197.791 28 197.851C28 197.911 28 197.971 28 198.031C28 198.091 28 198.151 28 198.21C28 198.27 28 198.329 28 198.388C28 198.447 28 198.506 28 198.565C28 198.623 28 198.682 28 198.74C28 198.798 28 198.857 28 198.914C28 198.972 28 199.03 28 199.087C28 199.145 28 199.202 28 199.259C28 199.316 28 199.373 28 199.43C28 199.486 28 199.543 28 199.599C28 199.655 28 199.711 28 199.767C28 199.823 28 199.879 28 199.934C28 199.99 28 200.045 28 200.1C28 200.155 28 200.21 28 200.264C28 200.319 28 200.373 28 200.427C28 200.481 28 200.535 28 200.589C28 200.643 28 200.696 28 200.75C28 200.803 28 200.856 28 200.909C28 200.962 28 201.015 28 201.067C28 201.12 28 201.172 28 201.224C28 201.276 28 201.328 28 201.379C28 201.431 28 201.483 28 201.534C28 201.585 28 201.636 28 201.687C28 201.737 28 201.788 28 201.838C28 201.889 28 201.939 28 201.989C28 202.038 28 202.088 28 202.138C28 202.187 28 202.236 28 202.285C28 202.334 28 202.383 28 202.432C28 202.48 28 202.529 28 202.577C28 202.625 28 202.673 28 202.72C28 202.768 28 202.816 28 202.863C28 202.91 28 202.957 28 203.004C28 203.051 28 203.097 28 203.143C28 203.19 28 203.236 28 203.282C28 203.328 28 203.373 28 203.419C28 203.464 28 203.509 28 203.554C28 203.599 28 203.644 28 203.689C28 203.733 28 203.777 28 203.821C28 203.866 28 203.909 28 203.953C28 203.997 28 204.04 28 204.083C28 204.126 28 204.169 28 204.212C28 204.254 28 204.297 28 204.339C28 204.381 28 204.423 28 204.465C28 204.507 28 204.548 28 204.59C28 204.631 28 204.672 28 204.713C28 204.753 28 204.794 28 204.834C28 204.875 28 204.915 28 204.955C28 204.994 28 205.034 28 205.073C28 205.113 28 205.152 28 205.191C28 205.23 28 205.268 28 205.307C28 205.345 28 205.383 28 205.421C28 205.459 28 205.497 28 205.535C28 205.572 28 205.609 28 205.646C28 205.683 28 205.72 28 205.756C28 205.793 28 205.829 28 205.865C28 205.901 28 205.937 28 205.972C28 206.008 28 206.043 28 206.078C28 206.113 28 206.148 28 206.182C28 206.217 28 206.251 28 206.285C28 206.319 28 206.353 28 206.387C28 206.42 28 206.453 28 206.486C28 206.519 28 206.552 28 206.585C28 206.617 28 206.65 28 206.682C28 206.714 28 206.745 28 206.777C28 206.809 28 206.84 28 206.871C28 206.902 28 206.933 28 206.963C28 206.994 28 207.024 28 207.054C28 207.084 28 207.114 28 207.143C28 207.173 28 207.202 28 207.231C28 207.26 28 207.289 28 207.317C28 207.345 28 207.374 28 207.402C28 207.43 28 207.457 28 207.485C28 207.512 28 207.539 28 207.566C28 207.593 28 207.62 28 207.646C28 207.673 28 207.699 28 207.725C28 207.75 28 207.776 28 207.801C28 207.827 28 207.852 28 207.877C28 207.902 28 207.926 28 207.95C28 207.975 28 207.999 28 208.022C28 208.046 28 208.07 28 208.093C28 208.116 28 208.139 28 208.162C28 208.185 28 208.207 28 208.229C28 208.251 28 208.273 28 208.295C28 208.316 28 208.338 28 208.359C28 208.38 28 208.401 28 208.421C28 208.442 28 208.462 28 208.482C28 208.502 28 208.522 28 208.541C28 208.561 28 208.58 28 208.599C28 208.618 28 208.636 28 208.655C28 208.673 28 208.691 28 208.709C28 208.727 28 208.744 28 208.762C28 208.779 28 208.796 28 208.813C28 208.829 28 208.846 28 208.862C28 208.878 28 208.894 28 208.91C28 208.925 28 208.941 28 208.956C28 208.971 28 208.986 28 209H38ZM38 83H283V73H38V83ZM38 82.9665C38 82.96 38.0006 82.9603 37.9995 82.9654C37.9985 82.9702 37.9968 82.9761 37.9943 82.982C37.9893 82.9936 37.9845 82.9987 37.9835 82.9997C37.9828 83.0004 37.9822 83.0009 37.981 83.0014C37.9802 83.0017 37.9801 83.0016 37.9815 83.0013C37.9826 83.0011 37.9883 83 38 83V73C32.521 73 28 77.4 28 82.9665H38Z" fill="url(#paint3_linear_172_47)"/>
<path d="M704.5 91C707.261 91 709.5 88.7614 709.5 86C709.5 83.2386 707.261 81 704.5 81V91ZM880.536 41.0355C882.488 39.0829 882.488 35.9171 880.536 33.9645L848.716 2.14466C846.763 0.192039 843.597 0.192039 841.645 2.14466C839.692 4.09728 839.692 7.26311 841.645 9.21573L869.929 37.5L841.645 65.7843C839.692 67.7369 839.692 70.9027 841.645 72.8553C843.597 74.808 846.763 74.808 848.716 72.8553L880.536 41.0355ZM704.5 81H663.5V91H704.5V81ZM663.5 81V42.5H653.5V81H663.5ZM663.5 42.5H877V32.5H663.5V42.5ZM663.5 42.5L663.5 42.5V32.5C657.977 32.5 653.5 36.9772 653.5 42.5H663.5ZM663.5 81L663.5 81H653.5C653.5 86.5228 657.977 91 663.5 91V81Z" fill="url(#paint4_linear_172_47)"/>
<path d="M854 115.5C856.761 115.5 859 113.261 859 110.5C859 107.739 856.761 105.5 854 105.5V115.5ZM715.464 106.964C713.512 108.917 713.512 112.083 715.464 114.036L747.284 145.855C749.237 147.808 752.403 147.808 754.355 145.855C756.308 143.903 756.308 140.737 754.355 138.784L726.071 110.5L754.355 82.2157C756.308 80.2631 756.308 77.0973 754.355 75.1447C752.403 73.192 749.237 73.192 747.284 75.1447L715.464 106.964ZM854 105.5H719V115.5H854V105.5Z" fill="#00D1FF"/>
<defs>
<linearGradient id="paint0_linear_172_47" x1="137.814" y1="190" x2="313" y2="190" gradientUnits="userSpaceOnUse">
<stop stop-color="#FF0000"/>
<stop offset="1" stop-color="#00D1FF"/>
</linearGradient>
<linearGradient id="paint1_linear_172_47" x1="534.628" y1="78" x2="534.628" y2="186.381" gradientUnits="userSpaceOnUse">
<stop stop-color="#FF0000"/>
<stop offset="1" stop-color="#00D1FF"/>
</linearGradient>
<linearGradient id="paint2_linear_172_47" x1="182.773" y1="265" x2="182.773" y2="333.577" gradientUnits="userSpaceOnUse">
<stop stop-color="#FF0000"/>
<stop offset="1" stop-color="#00D1FF"/>
</linearGradient>
<linearGradient id="paint3_linear_172_47" x1="218.935" y1="78" x2="218.935" y2="203.645" gradientUnits="userSpaceOnUse">
<stop stop-color="#FF0000"/>
<stop offset="1" stop-color="#00D1FF"/>
</linearGradient>
<linearGradient id="paint4_linear_172_47" x1="821.007" y1="37.5" x2="821.007" y2="84.0173" gradientUnits="userSpaceOnUse">
<stop stop-color="#FF0000"/>
<stop offset="1" stop-color="#00D1FF"/>
</linearGradient>
</defs>
</svg>
