<svg width="232" height="91" viewBox="0 0 232 91" fill="none" xmlns="http://www.w3.org/2000/svg">
<path d="M231.5 1C231.5 0.723858 231.276 0.5 231 0.5C230.724 0.5 230.5 0.723858 230.5 1H231.5ZM0.646447 86.6464C0.451184 86.8417 0.451184 87.1583 0.646447 87.3536L3.82843 90.5355C4.02369 90.7308 4.34027 90.7308 4.53553 90.5355C4.7308 90.3403 4.7308 90.0237 4.53553 89.8284L1.70711 87L4.53553 84.1716C4.7308 83.9763 4.7308 83.6597 4.53553 83.4645C4.34027 83.2692 4.02369 83.2692 3.82843 83.4645L0.646447 86.6464ZM230.5 1V82H231.5V1H230.5ZM226 86.5H1V87.5H226V86.5ZM230.5 82C230.5 84.4853 228.485 86.5 226 86.5V87.5C229.038 87.5 231.5 85.0376 231.5 82H230.5Z" fill="#00D1FF"/>
</svg>
