<svg width="269" height="123" viewBox="0 0 269 123" fill="none" xmlns="http://www.w3.org/2000/svg">
<path d="M191.098 121.536C193.051 123.488 196.217 123.488 198.169 121.536L229.989 89.7157C231.942 87.7631 231.942 84.5973 229.989 82.6447C228.037 80.692 224.871 80.692 222.918 82.6447L194.634 110.929L166.35 82.6447C164.397 80.692 161.231 80.692 159.279 82.6447C157.326 84.5973 157.326 87.7631 159.279 89.7157L191.098 121.536ZM5 0C2.23858 0 0 2.23858 0 5C0 7.76142 2.23858 10 5 10V0ZM199.634 118V50.1541H189.634V118H199.634ZM199.634 50.1541H259V40.1541H199.634V50.1541ZM269 40.1541V10H259V40.1541H269ZM259 0H5V10H259V0ZM269 10C269 4.47716 264.523 0 259 0V10L259 10H269ZM259 50.1541C264.523 50.1541 269 45.6769 269 40.1541H259L259 40.1541V50.1541ZM199.634 50.1541L199.634 50.1541V40.1541C194.111 40.1541 189.634 44.6312 189.634 50.1541H199.634Z" fill="url(#paint0_linear_172_42)"/>
<defs>
<linearGradient id="paint0_linear_172_42" x1="197.628" y1="5" x2="197.628" y2="113.381" gradientUnits="userSpaceOnUse">
<stop stop-color="#FF0000"/>
<stop offset="1" stop-color="#00D1FF"/>
</linearGradient>
</defs>
</svg>
