<svg width="130" height="43" viewBox="0 0 130 43" fill="none" xmlns="http://www.w3.org/2000/svg">
<g clip-path="url(#clip0_4116_9203)">
<path d="M96.4934 10.437C98.4397 10.437 100.018 8.86665 100.018 6.92946C100.018 4.99227 98.4397 3.42188 96.4934 3.42188C94.5471 3.42188 92.9692 4.99227 92.9692 6.92946C92.9692 8.86665 94.5471 10.437 96.4934 10.437Z" fill="white"/>
<path d="M121.685 39.9068V20.2123C121.685 18.1162 120.482 12.6915 112.691 12.6915C108.612 12.6915 103.564 14.0887 103.564 20.7446H108.947C108.947 20.7446 109.047 16.8179 112.457 16.8179C112.457 16.8179 115.726 16.4516 115.726 19.846V21.9759C115.726 21.9759 102.427 24.8041 102.427 33.8224C102.427 33.8224 101.763 38.1112 106.778 39.9062H99.3874V12.7128H93.4231V39.9068H83.812C87.3724 39.2044 90.0598 36.9974 90.0598 32.3451C90.0598 28.3283 87.5642 25.6815 83.8793 24.3494C81.373 23.4436 77.118 22.3855 77.4534 18.9461C77.6249 17.1878 79.2533 16.0165 80.9817 16.1374C84.2575 16.1374 84.3194 19.2733 84.3194 19.2733V21.4779H89.5607V19.9568C89.5607 14.7615 85.9025 12.3186 80.9817 12.3186C73.6129 12.3186 72.1531 16.9661 72.1531 19.8015C72.1531 25.5404 77.1901 27.3152 81.7935 28.7438C85.1002 29.7374 84.8823 32.3457 84.8823 32.3457C84.8823 36.6613 80.6708 36.3761 80.6708 36.3761C76.3968 36.3761 76.8024 32.1281 76.8024 32.1281V30.7932H71.8732V32.0351C71.8732 36.1509 74.4521 39.0407 78.0912 39.9074H37.5888C41.8396 39.2198 45.0373 36.4449 45.0373 31.9699V20.6379C45.0373 15.4391 40.7252 12.5267 35.4548 12.5267C30.1843 12.5267 25.8722 15.4391 25.8722 20.6379V31.9693C25.8722 36.4443 29.0705 39.2186 33.3213 39.9068H14.0805C18.6893 38.985 22.1015 35.8189 22.1015 30.8068V26.279H15.5844V30.4517C15.5844 32.8389 13.6047 34.1757 11.1847 34.1757C8.76482 34.1757 6.78505 32.8389 6.78505 30.4517V13.4858C6.78505 11.0986 8.76482 9.76186 11.1847 9.76186C13.6047 9.76186 15.5844 11.0986 15.5844 13.4858V15.694H22.102V13.2469C22.102 7.23002 17.189 3.85938 11.1847 3.85938C5.17992 3.85938 0.266828 7.23002 0.266828 13.2469V30.8068C0.266828 35.8183 3.67901 38.985 8.28775 39.9068H0V41.2952H126.706V39.9068H121.685ZM31.4077 32.3575V20.2502C31.4077 18.0545 33.229 16.8245 35.4548 16.8245C37.6805 16.8245 39.5018 18.0545 39.5018 20.2502V32.3575C39.5018 34.5533 37.6805 35.7833 35.4548 35.7833C33.229 35.7833 31.4077 34.5533 31.4077 32.3575ZM115.726 36.3957H110.955C109.396 36.3957 108.041 35.2208 107.943 33.6718C107.943 33.6718 106.951 30.4031 115.726 27.0354L115.726 36.3957Z" fill="white"/>
<path d="M58.6174 0.5H58.5924L45.7358 39.8985H53.2547L58.6049 19.1364L63.9564 39.8985H71.4746L58.6174 0.5Z" fill="#E60012"/>
<path d="M127.911 42.6969C129.065 42.6969 130 41.7662 130 40.618C130 39.4698 129.065 38.5391 127.911 38.5391C126.757 38.5391 125.822 39.4698 125.822 40.618C125.822 41.7662 126.757 42.6969 127.911 42.6969Z" fill="#E60012"/>
</g>
<defs>
<clipPath id="clip0_4116_9203">
<rect width="130" height="43" fill="white"/>
</clipPath>
</defs>
</svg>
